 <!DOCTYPE svg PUBLIC "-//W3C//DTD SVG 1.1//EN" "http://www.w3.org/Graphics/SVG/1.1/DTD/svg11.dtd">
<svg xmlns="http://www.w3.org/2000/svg" viewBox="0 0 865.76 682.89">
<defs>
<style xmlns="http://www.w3.org/1999/xhtml">*, ::after, ::before { box-sizing: border-box; }
img, svg { vertical-align: middle; }
</style>
<style xmlns="http://www.w3.org/1999/xhtml">*, body, html { -webkit-font-smoothing: antialiased; }
img, svg { max-width: 100%; }
</style>
</defs>
<path d="M301.08,286.9c-10.07-17.28-6.4-41.37,8.35-54.84,8.19-7.48,19.35-12.09,25-21.63,9.33-15.73-.7-35.3-2.9-53.45a62.27,62.27,0,0,1,24.7-56.66c14.45-10.49,35.06-16.74,39.34-34,3-12.28-3.89-26.26,2.19-37.4,6-10.84,20.61-12.38,33-12.71q149.79-3.28,299.62-2.38c4.83,0,10,.17,14,2.87,6.57,4.46,7.24,13.72,7.27,21.66q.23,108.63.44,217.25c0,12.77,0,25.7-3.21,38s-10.22,24.22-21.22,30.7c-27.22,16-63.78-7-93,5.09-22.08,9.1-32.72,35.3-53.88,46.37-19.69,10.29-43.76,5.2-64.35-3.1s-40.48-19.7-62.56-21.88c-21.88-2.11-43.58,5.2-65.56,5.85s-47.47-8.81-53.13-30.06" fill="#ebebeb"/>
<path d="M397.08,135.1a17.69,17.69,0,1,1-12.8-21.5h0a17.68,17.68,0,0,1,12.78,21.49Z" fill="#0071f2" data-primary="true"/>
<g opacity="0.3">
<path d="M373.39,114.26c.17.31.33.58.45.78a3.6,3.6,0,0,0-2,1.72,6.78,6.78,0,0,0,.12,2.69.77.77,0,0,1-.86.94c-1.3.1-2.84.13-3.6,1.2-.43.61-.56,1.53-1.25,1.85s-1.52-.31-2-1A17.69,17.69,0,0,1,373.39,114.26Z"/>
</g>
<g opacity="0.3">
<path d="M369.11,124.84a.13.13,0,0,1-.12,0c-1.76-.29-.42-3.59.92-3.74a1.1,1.1,0,0,1,1.15,1,1.27,1.27,0,0,1-.06.39c-.28.93-1.33,1.34-1.75,2.19A.24.24,0,0,1,369.11,124.84Z"/>
</g>
<g opacity="0.3">
<path d="M365.6,128.45a.6.6,0,0,1-.66-.11,2,2,0,0,1-.72-2.19c.4-1.34,2.47-2.09,3.23-.61a1.31,1.31,0,0,1-.34,1.61c-.26.19-.6.25-.87.46a2.69,2.69,0,0,0-.48.63A.65.65,0,0,1,365.6,128.45Z"/>
</g>
<g opacity="0.3">
<path d="M367.06,133.33c-.23.09-.51-.05-.7.1s-.15.42-.33.5-.36-.09-.45-.25a2.36,2.36,0,0,1-.3-1.74.81.81,0,0,1,.12-.29,1.6,1.6,0,0,1,.65-.39.89.89,0,0,1,.86.32,2.07,2.07,0,0,1,.4.88C367.41,132.78,367.41,133.22,367.06,133.33Z"/>
</g>
<g opacity="0.3">
<path d="M368.34,130.25c.7-1,2.32-.59,3.12,0,.63.47,1.5,2.18.13,2.43a1.63,1.63,0,0,1-1.3-.38c-.24-.2-.42-.51-.73-.64h-.07c-.31-.11-.69,0-1-.22A.87.87,0,0,1,368.34,130.25Z"/>
</g>
<g opacity="0.3">
<path d="M369.41,133a.61.61,0,0,1,0,.46.53.53,0,0,1-.31.17.68.68,0,0,1-.75-.62h0a.71.71,0,0,1,.54-.66A1.24,1.24,0,0,1,369.41,133Z"/>
</g>
<g opacity="0.3">
<path d="M363.14,129.74a1.67,1.67,0,0,1,.49,1.1,8.24,8.24,0,0,1-.24,1c-.19,1.1.84,2.19.37,3.22a1.65,1.65,0,0,1-.75.75,17.69,17.69,0,0,1-.68-6.67A2.58,2.58,0,0,1,363.14,129.74Z"/>
</g>
<g opacity="0.3">
<path d="M366.06,141.64a17.66,17.66,0,0,1-2.46-4.19c.64-1,1.22-1.93,2.62-2.12a1.88,1.88,0,0,1,1.93.9,2.73,2.73,0,0,1,.17,1.1v1.22a.88.88,0,0,1-.06.48c-.23.45-.9.32-1.37.52a1.3,1.3,0,0,0-.68.84,5.73,5.73,0,0,0-.16,1.09S366.06,141.59,366.06,141.64Z"/>
</g>
<g opacity="0.3">
<path d="M370.86,138.62a3.57,3.57,0,0,1-.27-.68,5.45,5.45,0,0,0-.58-.84,1.12,1.12,0,0,1-.18-1,.49.49,0,0,1,.23-.22.54.54,0,0,1,.33.07,5.48,5.48,0,0,1,1.6,1.27l-.22-.15a1.27,1.27,0,0,1,.41.6,1,1,0,0,1-.3,1A.77.77,0,0,1,370.86,138.62Z"/>
</g>
<g opacity="0.3">
<path d="M383.75,117.36a.85.85,0,0,0-.35-.08c-.36,0-.49.48-.78.69a.83.83,0,0,1-1-.12c-1.37-1.21.5-2.88,1.87-2.65S386,118.2,383.75,117.36Z"/>
</g>
<g opacity="0.3">
<path d="M384.22,126.25a7.18,7.18,0,0,1-.82-1.58,2.42,2.42,0,0,1-.19-1.4,2.58,2.58,0,0,1,1.76-1.55,3.65,3.65,0,0,1,2.06-.25,7.68,7.68,0,0,1,1.23.58c.68.33,1.43.51,2.11.82a3.2,3.2,0,0,1,1.24,1,6.21,6.21,0,0,1,2.07,3.56,2.31,2.31,0,0,1-.22,1.78c-.63.93-2.11.84-2.88,1.66s-.65,2-1.47,2.55-1.87.06-2.67-.47c-1.09-.76-2.27-1.84-2.19-3.2.07-.89.69-1.76.44-2.62A4,4,0,0,0,384.22,126.25Z"/>
</g>
<g opacity="0.3">
<path d="M391.78,121.7l-1.46-.42a1.18,1.18,0,0,1-.39-.19.59.59,0,0,1,.07-.85l0,0a1,1,0,0,1,1,0,2.69,2.69,0,0,1,.8.62l-.4-.27A1.18,1.18,0,0,1,391.78,121.7Z"/>
</g>
<g opacity="0.3">
<path d="M394.27,124.28c0,.28-.23.56-.49.5a.74.74,0,0,1-.34-.29l-.7-.92a.56.56,0,0,1-.15-.33.35.35,0,0,1,.33-.3.67.67,0,0,1,.45.14,3.22,3.22,0,0,1,.85,1.09l-.28-.61A1.29,1.29,0,0,1,394.27,124.28Z"/>
</g>
<g opacity="0.3">
<path d="M370.22,127.74a.48.48,0,0,1-.3-.61.49.49,0,0,1,.53-.32.49.49,0,0,1,.29.62A.49.49,0,0,1,370.22,127.74Z"/>
</g>
<g opacity="0.3">
<path d="M370.94,124.59a.61.61,0,0,1,.45.74.63.63,0,0,1-.75.45.61.61,0,0,1-.45-.74.63.63,0,0,1,.75-.45Z"/>
</g>
<g opacity="0.3">
<path d="M372.8,129.37a2.74,2.74,0,0,1-.72-3.28c.37-.7,1.16-1.23,1.88-.67a2.18,2.18,0,0,1,.52,2.3c-.12.68.1.89.42,1.44a2.05,2.05,0,0,1,.35,1,1,1,0,0,1-.94,1.07,1.1,1.1,0,0,1-.4-.05C373.29,130.91,373,130.07,372.8,129.37Z"/>
</g>
<g opacity="0.3">
<path d="M370.1,133.93a3.1,3.1,0,0,1,1.45.08h.16c.47.16,1,.57.85,1.09a.86.86,0,0,1-1,.65l-.08,0a2.06,2.06,0,0,1-.59-.34,2.06,2.06,0,0,0-.77-.38C369.6,134.93,369.47,134,370.1,133.93Z"/>
</g>
<g opacity="0.3">
<path d="M372.82,133.76a.53.53,0,0,1-.25-.24.43.43,0,0,1,.18-.58.45.45,0,0,1,.28,0,.49.49,0,0,1,.38.5.4.4,0,0,1-.41.39A.34.34,0,0,1,372.82,133.76Z"/>
</g>
<g opacity="0.3">
<path d="M382.45,127.16a1.87,1.87,0,0,1-.07.4.67.67,0,0,1,0,.2,1.21,1.21,0,0,1-.94,1.27c-.51,0-.86-.8-1.09-1.44a2.6,2.6,0,0,1-.07-2.1.92.92,0,0,1,1.21-.49,1,1,0,0,1,.31.22,2.79,2.79,0,0,1,.61,1.94"/>
</g>
<g opacity="0.3">
<path d="M382.44,131.17a.66.66,0,0,1-.09-.19h0a.64.64,0,0,1,0-.68.56.56,0,0,1,.75-.21.85.85,0,0,1,.38,1.1.6.6,0,0,1-.81.22A.59.59,0,0,1,382.44,131.17Z"/>
</g>
<g opacity="0.3">
<path d="M380.86,131.78c-.61.11-1-.36-1.3-.79a8.67,8.67,0,0,1-1-1.37,1.18,1.18,0,0,1,0-1.32.82.82,0,0,1,1.16-.08h0a4.27,4.27,0,0,1,.81,1.36.76.76,0,0,0,.12.19h0C381.38,130.12,382.06,131.57,380.86,131.78Z"/>
</g>
<g opacity="0.3">
<path d="M396,123.19a3.56,3.56,0,0,1-2.31-1,4.19,4.19,0,0,1-1.2-3.29,1.76,1.76,0,0,1-.11-.82A17.66,17.66,0,0,1,396,123.19Z"/>
</g>
<g opacity="0.3">
<path d="M392.46,135.4h-.11a2,2,0,0,1-1.29,1.17.5.5,0,0,1-.66.24l0,0a1.09,1.09,0,0,1-.49-.66,1.33,1.33,0,0,1-.2-.89c.09-.6.48-.89.83-1.33h0a4.89,4.89,0,0,0,.34-.82,2.81,2.81,0,0,1,.16-.49,1.1,1.1,0,0,1,1.43-.25l.17.11c.25,0,.41.27.48.52s.25.38.36.58l-.29-.38a3.14,3.14,0,0,1,.14,1.26A1.08,1.08,0,0,1,392.46,135.4Z"/>
</g>
<g opacity="0.3">
<path d="M382.26,120.65a.71.71,0,0,1,.83.92,1.67,1.67,0,0,1-.39.56l-.12.13v.12a1.25,1.25,0,0,1-.19.59c-.27.41-1,.43-1.09-.13a1.43,1.43,0,0,1,.13-1v-.06A1.22,1.22,0,0,1,382.26,120.65Z"/>
</g>
<g opacity="0.3">
<path d="M389.83,140.41c-.07-.91.91-1.24,1.44-1.76s.35-1.63,1.2-1.94a.94.94,0,0,1,1.17.6.75.75,0,0,1,0,.26,3,3,0,0,1-.47,2,2.47,2.47,0,0,1-2.08,1.93A1.24,1.24,0,0,1,389.83,140.41Z"/>
</g>
<g opacity="0.3">
<path d="M394.07,134.51a.49.49,0,0,1,.6-.35.46.46,0,0,1,.29.22,2.47,2.47,0,0,1,.29,1.1c0,.35-.15.84-.54.94h-.07a.94.94,0,0,1-.57.13.91.91,0,0,1-.76-1,.94.94,0,0,1,.3-.54C393.77,134.81,394,134.74,394.07,134.51Z"/>
</g>
<g opacity="0.3">
<path d="M393.77,132.8a.44.44,0,0,1,.1-.44.32.32,0,0,1,.39-.06c.17.07.2.22.23.39a.36.36,0,0,1-.31.36A.38.38,0,0,1,393.77,132.8Z"/>
</g>
<g opacity="0.3">
<path d="M396.52,135.91a4.75,4.75,0,0,0-.8-3.39,3.33,3.33,0,0,1-.49-2,3.6,3.6,0,0,1,2.18-2.52,17.38,17.38,0,0,1-.35,7.07c-.12.49-.27,1-.42,1.43A.72.72,0,0,1,396.52,135.91Z"/>
</g>
<g opacity="0.3">
<path d="M395.86,127.8a.73.73,0,0,1-1,0h0a.69.69,0,0,1-.2-1,1.29,1.29,0,0,1,.37-.33,4.18,4.18,0,0,1,1.74-1.09,17,17,0,0,1,.44,1.67A3.81,3.81,0,0,0,395.86,127.8Z"/>
</g>
<g opacity="0.3">
<path d="M394.94,124.22a.39.39,0,0,1,.46-.32.42.42,0,0,1,.2.1l.1.13h0a.5.5,0,0,1,.14.35.69.69,0,0,1,0,.35.5.5,0,0,1-.08.12V125a.35.35,0,0,1-.47.13.79.79,0,0,1-.42-.58A.59.59,0,0,1,394.94,124.22Z"/>
</g>
<g opacity="0.3">
<path d="M394.66,130a.79.79,0,0,1-.34.36c-.11.6-.64,1.26-1.23.9a.64.64,0,0,1-.16-.89l0-.06a5.37,5.37,0,0,1,1-.84.43.43,0,0,1,.62,0A.45.45,0,0,1,394.66,130Z"/>
</g>
<g opacity="0.3">
<path d="M365.52,129.22a1,1,0,0,1,.84-.68,2.19,2.19,0,0,0,1.1-.48.5.5,0,0,1,.83.47,1.69,1.69,0,0,1-.88,1.09,1.36,1.36,0,0,1-1.19.18h-.32a.46.46,0,0,1-.39-.52S365.52,129.24,365.52,129.22Z"/>
</g>
<g opacity="0.3">
<path d="M363.63,125.72a2.25,2.25,0,0,1-.91,1,.53.53,0,0,1,.09-.35,18.79,18.79,0,0,1,1-2.85h0A2.37,2.37,0,0,1,363.63,125.72Z"/>
</g>
<g opacity="0.3">
<path d="M373.77,142.58c-.29-.58.22-1.2.69-1.49.68-.43,1.42-.45,2-1.1s.83-1.09,1.53-1.29a1.16,1.16,0,0,1,1.28.55,1.44,1.44,0,0,1,0,1.31,2.3,2.3,0,0,1-.42,1.32,2.86,2.86,0,0,1-2.65,1.09C375.3,143.38,374.19,143.44,373.77,142.58Z"/>
</g>
<g opacity="0.3">
<path d="M375.41,139.85a.64.64,0,0,1-.27-.72.84.84,0,0,1,.75-.61.47.47,0,0,1,.43,0c.53.29.27,1-.17,1.26A.76.76,0,0,1,375.41,139.85Z"/>
</g>
<g opacity="0.3">
<path d="M380.12,141.67a.46.46,0,0,1-.4-.22,1.1,1.1,0,0,1,0-1,.47.47,0,0,1,.65-.15.54.54,0,0,1,.15.15.62.62,0,0,1,.32.65A.77.77,0,0,1,380.12,141.67Z"/>
</g>
<g opacity="0.2">
<path d="M370.18,116a17.69,17.69,0,0,0,23.37,26.09,17.69,17.69,0,0,1-27.13-22.72A18,18,0,0,1,370.18,116Z"/>
</g>
<path d="M399.68,119.41a1.66,1.66,0,1,1-.1.07" fill="#0071f2" data-primary="true"/>
<path d="M395,116.46a1,1,0,1,1-.05,0" fill="#0071f2" data-primary="true"/>
<ellipse cx="697.73" cy="81" rx="21.31" ry="20.24" transform="translate(191.08 567.51) rotate(-50.46)" fill="#0071f2" data-primary="true"/>
<g opacity="0.2">
<path d="M680.12,74.77a14.06,14.06,0,0,0,5.47-1c.43-.16.24-.77-.13-.81-1.62-.16-3.16-.35-4.81-.36a9.65,9.65,0,0,1-1.39-.07,21.78,21.78,0,0,0-.91,2.19Z"/>
<path d="M682,78.08a31.63,31.63,0,0,0,12.85-2.47,36.54,36.54,0,0,0,11.31-7.42,31.06,31.06,0,0,0,4-4.53,16.44,16.44,0,0,0-1.79-1.09,22.88,22.88,0,0,1-3.18,3.9A35.5,35.5,0,0,1,696,73a31.89,31.89,0,0,1-10.3,3.28,20.26,20.26,0,0,1-7.76-.12,13.4,13.4,0,0,0-.35,1.35A18.41,18.41,0,0,0,682,78.08Z" fill="#fff"/>
<path d="M691.35,65.47c2-.72,5.64-2.82,6.57-5.33a11.48,11.48,0,0,0-2.13.19,3.77,3.77,0,0,1-.26.39,9.68,9.68,0,0,1-3.73,2.85,13.68,13.68,0,0,1-6.67,1.53c-.34.29-.68.58-1,.89C686.3,66.79,689.36,66.14,691.35,65.47Z" fill="#fff"/>
<path d="M684.8,85.05A40.33,40.33,0,0,0,700,80.8a37.47,37.47,0,0,0,12-8.39,29.87,29.87,0,0,0,3-3.78,19.59,19.59,0,0,0-3.11-3.57A31.4,31.4,0,0,1,707.6,70a38.87,38.87,0,0,1-10.35,6.63A38.9,38.9,0,0,1,685,80.26a31.08,31.08,0,0,1-6.25,0,9.23,9.23,0,0,1-1.59-.23,21.28,21.28,0,0,0,0,4.37A26.82,26.82,0,0,0,684.8,85.05Z"/>
<path d="M693.91,96.29a68.6,68.6,0,0,1-8.86,1.83q.66.48,1.35.9a62.7,62.7,0,0,0,19.88-6,70.45,70.45,0,0,0,11.06-6.5c.13-.41.25-.83.36-1.25a68.63,68.63,0,0,1-11.55,6.57A80.13,80.13,0,0,1,693.91,96.29Z"/>
<path d="M692.74,68.38a19.14,19.14,0,0,0,7.73-4.81,16.09,16.09,0,0,0,2.19-3,17.37,17.37,0,0,0-1.9-.27,11.24,11.24,0,0,1-1.83,2.5,17.77,17.77,0,0,1-6.48,4.18,23.79,23.79,0,0,1-10.89,1.84c-.3.39-.6.8-.87,1.21C684.64,70.72,689.45,69.56,692.74,68.38Z" fill="#fff"/>
<path d="M718.4,80.06a53,53,0,0,1-4.16,3.9,46.25,46.25,0,0,1-20.88,10c-3.61.78-7.66,1.68-11.37,1.34.31.36.64.72,1,1.09a37.26,37.26,0,0,0,8.68-1,52.87,52.87,0,0,0,12.57-3.67,51.37,51.37,0,0,0,14.09-9.36v-.18C718.36,81.41,718.39,80.73,718.4,80.06Z" fill="#fff"/>
<path d="M703.47,88.81a52.72,52.72,0,0,0,13.58-9.22c.44-.42.87-.83,1.28-1.27a20.14,20.14,0,0,0-2.07-7.52,33.73,33.73,0,0,1-4.15,4.54A47.51,47.51,0,0,1,700.4,83a41.36,41.36,0,0,1-13.85,4,34.44,34.44,0,0,1-7.66-.19l-1.33-.23a19.35,19.35,0,0,0,3.09,7,31.58,31.58,0,0,0,5.67,0A48.2,48.2,0,0,0,703.47,88.81Z" fill="#fff"/>
<path d="M699.88,66.17a50.07,50.07,0,0,1-4.27,3c-1.64.83-3.59,1.17-5.1,2.28a.84.84,0,0,0,.67,1.47,22.38,22.38,0,0,0,5.92-2.45c1.44-.75,3.11-2,3.53-3.65C700.74,66.43,700.35,65.86,699.88,66.17Z"/>
<path d="M703.07,97.54a4.87,4.87,0,0,0-1,.73c-.31.28,0,.85.39.62a4,4,0,0,1,.92-.4,3.8,3.8,0,0,0,.91-.49.32.32,0,0,0,.13-.44.35.35,0,0,0-.24-.17A1.69,1.69,0,0,0,703.07,97.54Z" fill="#fff"/>
<path d="M713.07,90.64c-2,1.18-4.54,1.94-6.32,3.5a.62.62,0,0,0,.34,1.1c2.48-.09,5-1.73,7.14-3l.53-.33a22.43,22.43,0,0,0,1.93-3.62C715.51,89.14,714.31,89.92,713.07,90.64Z"/>
<path d="M698.79,99c.57-.42.06-1.1-.49-1.1-1.89.19-3.77,1.16-5.65,1.61-1.25.3-2.5.56-3.75.8a19.3,19.3,0,0,0,2.87.95A14,14,0,0,0,698.79,99Z" fill="#fff"/>
</g>
<path d="M704.61,98.93a2.52,2.52,0,0,1-.58.32,12.34,12.34,0,0,1-1.68.69,19,19,0,0,1-5.92,1,20,20,0,0,1-3.28-.29,17.13,17.13,0,0,1-2.62-.69c-.36-.12-.67-.26-1-.38s-.48-.21-.71-.33a2.26,2.26,0,0,1-.58-.34s.88.38,2.33.84a19.5,19.5,0,0,0,2.59.62,21.36,21.36,0,0,0,3.29.26,20.75,20.75,0,0,0,5.85-.9C703.74,99.28,704.59,98.88,704.61,98.93Z" fill="#fff"/>
<path d="M712.9,67.4c.08.07-.19.56-.76,1.41l-.48.71c-.19.26-.4.51-.63.79a22.36,22.36,0,0,1-1.66,1.85c-.32.31-.66.65-1,1s-.78.68-1.19,1a33.06,33.06,0,0,1-2.73,2.11,37.83,37.83,0,0,1-7,3.75,38.51,38.51,0,0,1-7.66,2.19,33,33,0,0,1-3.43.37c-.55,0-1.1.09-1.57.08h-1.44a18.69,18.69,0,0,1-2.48-.19l-1-.12-.83-.17c-1-.22-1.55-.4-1.54-.51s.59-.13,1.6-.09h4.24l1.4-.08a14.24,14.24,0,0,0,1.51-.17,32.77,32.77,0,0,0,3.28-.5,44.52,44.52,0,0,0,7.31-2.19,43.33,43.33,0,0,0,6.76-3.51c1-.66,1.91-1.26,2.72-1.92.41-.32.82-.62,1.19-.93l1.1-.91c.7-.57,1.25-1.16,1.77-1.64.25-.26.5-.47.71-.69l.58-.61C712.38,67.71,712.81,67.34,712.9,67.4Z" opacity="0.2"/>
<path d="M717.33,86.34v-.15l.09-.45c.08-.43.2-1,.37-1.75h0v.07h0v-.29h0a20.76,20.76,0,0,0-.22-6.81V77h0a20,20,0,0,0-12.08-14.68h.16l-.07.07h-.1a18.72,18.72,0,0,0-2.74-.91,19.6,19.6,0,0,0-12.23,1.1,21.88,21.88,0,0,0-8.16,6,20.86,20.86,0,0,0-3.57,5.89c-.29.77-.49,1.37-.61,1.79a1.75,1.75,0,0,1-.14.47v.15a15.18,15.18,0,0,1,.7-2.45,20.36,20.36,0,0,1,3.49-6,22.13,22.13,0,0,1,8.23-6.12,20.33,20.33,0,0,1,5.88-1.58,18.56,18.56,0,0,1,9.35,1.33h-.17l.08-.07h.09a20.11,20.11,0,0,1,8.62,6.57,19.84,19.84,0,0,1,3.62,8.16v0a20.06,20.06,0,0,1,.13,6.87h0v.29h0V84h0l-.42,1.75c0,.19-.08.33-.12.45Z" fill="#fff"/>
<path d="M678.14,88.74q-.14-.34-.24-.69c-9,4.88-13.06,8.08-13.64,9.57a.52.52,0,0,0,0,.27h0c0,.08.15.14.21.16,1,.41,6.56.8,34-11.69,16.52-7.51,28-15,31.25-18.1a.57.57,0,0,0-.42-1,69.13,69.13,0,0,0-12.94,3.57l.23.49c5.26-1.8,8.66-2.56,9-1.8.61,1.51-11.5,8.47-27.05,15.56S669.81,96.81,669.2,95.3C668.86,94.47,672.35,92,678.14,88.74Z" fill="#0071f2" data-primary="true"/>
<path d="M715.34,69l.22.41c8.14-2.89,14.11-4.32,15.86-3.62a1.34,1.34,0,0,1,.9,1.3c0,.61,0,2.45-10.11,8.75a210.73,210.73,0,0,1-23.12,12.21c-3.56,1.62-7.34,3.28-11.07,4.85-10.78,4.52-21.13,8.13-24.25,6.88a1.81,1.81,0,0,1-1.09-1.09,2,2,0,0,1,0-1.6c1.09-2.68,7.53-6.79,14.72-10.66a1.37,1.37,0,0,0-.07-.29c-12.1,6.62-19.52,12.32-18.89,14.67,1.25,5.05,20-1.1,41.58-10.94s37.89-21.52,36.59-24.72C735.67,63.11,727.21,64.78,715.34,69Z" fill="#0071f2" data-primary="true"/>
<path d="M720.45,71.38c.17,0-.82,1-.86,1a12,12,0,0,1-1.33.91c-1.21.8-2.44,1.52-3.7,2.19a47.14,47.14,0,0,0-5.35,3c-.19.14,0,.37.17.32a33.62,33.62,0,0,0,11-6.06c.42-.35,1.09-.86.9-1.49a.59.59,0,0,0-.72-.42l-.17.08a.24.24,0,0,0-.17.3.24.24,0,0,0,.27.17Z" fill="#0071f2" data-primary="true"/>
<g opacity="0.3">
<path d="M678.14,88.74q-.14-.34-.24-.69c-9,4.88-13.06,8.08-13.64,9.57a.52.52,0,0,0,0,.27h0c0,.08.15.14.21.16,1,.41,6.56.8,34-11.69,16.52-7.51,28-15,31.25-18.1a.57.57,0,0,0-.42-1,69.13,69.13,0,0,0-12.94,3.57l.23.49c5.26-1.8,8.66-2.56,9-1.8.61,1.51-11.5,8.47-27.05,15.56S669.81,96.81,669.2,95.3C668.86,94.47,672.35,92,678.14,88.74Z"/>
<path d="M720.45,71.38c.17,0-.82,1-.86,1a12,12,0,0,1-1.33.91c-1.21.8-2.44,1.52-3.7,2.19a47.14,47.14,0,0,0-5.35,3c-.19.14,0,.37.17.32a33.62,33.62,0,0,0,11-6.06c.42-.35,1.09-.86.9-1.49a.59.59,0,0,0-.72-.42l-.17.08a.24.24,0,0,0-.17.3.24.24,0,0,0,.27.17Z"/>
</g>
<g opacity="0.3">
<path d="M715.34,69l.22.41c8.14-2.89,14.11-4.32,15.86-3.62a1.34,1.34,0,0,1,.9,1.3c0,.61,0,2.45-10.11,8.75a210.73,210.73,0,0,1-23.12,12.21c-3.56,1.62-7.34,3.28-11.07,4.85-10.78,4.52-21.13,8.13-24.25,6.88a1.81,1.81,0,0,1-1.09-1.09,2,2,0,0,1,0-1.6c1.09-2.68,7.53-6.79,14.72-10.66a1.37,1.37,0,0,0-.07-.29c-12.1,6.62-19.52,12.32-18.89,14.67,1.25,5.05,20-1.1,41.58-10.94s37.89-21.52,36.59-24.72C735.67,63.11,727.21,64.78,715.34,69Z"/>
</g>
<path d="M532.62,129.81a85.34,85.34,0,1,0,95-74.4,85.35,85.35,0,0,0-95,74.4Z" fill="#f5f5f5"/>
<path d="M598,166.91a18.6,18.6,0,1,0,20.73-16.19h0A18.6,18.6,0,0,0,598,166.91Z" fill="#e0e0e0"/>
<path d="M596,166.84c-1.23,10.17,5.37,19.33,15.53,20.56s18.85-6.76,20.09-16.92A17.32,17.32,0,0,0,616,150.7C605.85,149.51,597.25,156.69,596,166.84Z" fill="#ebebeb"/>
<path d="M600.16,56.53a85.38,85.38,0,0,0-44.93,50.54s3.42,3.55,2.81,7.88c-.5,3.57-4.5,4.61-5.91,4.86-.21,1.24-.43,2.47-.58,3.72a85.57,85.57,0,0,0-.17,18.86c.25.19,7.27,5.47,7.65,10.35.3,3.71-1.45,7.29-3.14,9.85.52,1.44,1.1,2.88,1.65,4.29a85.77,85.77,0,0,0,21.25,30c.85-.36,5.9-2.37,10.42-.09,4.94,2.51,3.28,9.74,3.28,9.74l-.6.19a85.13,85.13,0,0,0,61.51,10.7A85.34,85.34,0,1,1,600.12,56.53Z" fill="#e0e0e0"/>
<path d="M554.57,124.17a2.06,2.06,0,1,0,2.29-1.79h0A2.07,2.07,0,0,0,554.57,124.17Z" fill="#e0e0e0"/>
<path d="M648.6,178.16a29,29,0,0,1,5.19-10.63c1.5-2.09,3.6-4.31,6.15-4l2.19.36a8.28,8.28,0,0,1,9,2.19,10.13,10.13,0,0,1,2,8.6,19.67,19.67,0,0,1-4.05,8.1,37.67,37.67,0,0,1-7.36,7.13,9.65,9.65,0,0,1-5.19,2.19,7.23,7.23,0,0,1-5.47-2.74C648.38,186.4,647.75,182.05,648.6,178.16Z" fill="#e0e0e0"/>
<path d="M646.55,177.92a28.87,28.87,0,0,1,5.2-10.64,9.58,9.58,0,0,1,6.14-4l3.35-.55c3.29.11,5.64.61,7.82,3.08a10.2,10.2,0,0,1,2,8.6,19.71,19.71,0,0,1-4.06,8.09,37.22,37.22,0,0,1-7.37,7.14,8.22,8.22,0,0,1-4.88,1.89c-2.11,0-3.51-1.37-4.89-3C647.26,185.59,645.74,181.8,646.55,177.92Z" fill="#ebebeb"/>
<path d="M622.7,208.33a25.71,25.71,0,0,1-9.14-1.09c-1.88-.53-4-1.4-4.23-3.09l-.16-1.45a4.8,4.8,0,0,1-.14-6.14,8.94,8.94,0,0,1,6.16-3,17.34,17.34,0,0,1,7,.92,28.81,28.81,0,0,1,6.91,3.22,6.11,6.11,0,0,1,2.72,2.83,4.38,4.38,0,0,1-1,4C629,206.77,625.83,208.05,622.7,208.33Z" fill="#e0e0e0"/>
<path d="M620.91,208.76a25.46,25.46,0,0,1-9.14-1.1,6.77,6.77,0,0,1-4.25-3.08l-1.09-2c-.58-2.14-.66-3.71.79-5.58a9,9,0,0,1,6.16-3,17.39,17.39,0,0,1,7,.93,29.25,29.25,0,0,1,6.9,3.2,5.34,5.34,0,0,1,2.41,2.72c.47,1.32-.34,2.5-1.29,3.7A10.84,10.84,0,0,1,620.91,208.76Z" fill="#ebebeb"/>
<path d="M577.7,87a28.64,28.64,0,0,1,9.72-6.77c2.31-1.09,5.22-2,7.28-.48l1.73,1.34a8.27,8.27,0,0,1,6.81,6.26,10.18,10.18,0,0,1-2.45,8.48,19.54,19.54,0,0,1-7.48,5.1,36.92,36.92,0,0,1-9.9,2.66,9.55,9.55,0,0,1-5.61-.57A7.2,7.2,0,0,1,574.33,98C573.53,94.1,575.11,90,577.7,87Z" fill="#e0e0e0"/>
<path d="M574.52,87.89a28.68,28.68,0,0,1,9.7-6.76,9.63,9.63,0,0,1,7.3-.49l3.19,1.15c2.86,1.73,4.64,3.28,5.34,6.49a10.18,10.18,0,0,1-2.45,8.48,19.68,19.68,0,0,1-7.48,5.11,37.41,37.41,0,0,1-9.85,2.65,8.17,8.17,0,0,1-5.19-.71c-1.87-1-2.4-2.91-2.83-5C571.41,95,571.91,90.92,574.52,87.89Z" fill="#ebebeb"/>
<path d="M658.61,148.91a4.19,4.19,0,0,1,1.61-2.31,5.73,5.73,0,0,1,3.86-.46,4.13,4.13,0,0,1,2.7,2.19,5.89,5.89,0,0,1,1,4.44,4.74,4.74,0,0,1-2.83,3.46,4.86,4.86,0,0,1-5.39-1.59A6.14,6.14,0,0,1,658.61,148.91Z" fill="#e0e0e0"/>
<path d="M657.74,148.91a3.93,3.93,0,0,1,1.48-2.12,5.25,5.25,0,0,1,3.55-.42,3.78,3.78,0,0,1,2.48,2,5.43,5.43,0,0,1,.89,4.08,4.4,4.4,0,0,1-2.62,3.19,4.52,4.52,0,0,1-5-1.46A5.71,5.71,0,0,1,657.74,148.91Z" fill="#ebebeb"/>
<path d="M666.45,97.7a3.41,3.41,0,0,1,1.29-1.86,4.53,4.53,0,0,1,3.11-.37A3.28,3.28,0,0,1,673,97.19a4.81,4.81,0,0,1,.72,3.58,3.83,3.83,0,0,1-2.29,2.78,3.91,3.91,0,0,1-4.37-1.28A5,5,0,0,1,666.45,97.7Z" fill="#e0e0e0"/>
<path d="M665.75,97.72a3.26,3.26,0,0,1,1.19-1.7,4.29,4.29,0,0,1,2.86-.34,3,3,0,0,1,2,1.59,4.35,4.35,0,0,1,.71,3.28,3.53,3.53,0,0,1-2.1,2.56,3.63,3.63,0,0,1-4-1.18A4.6,4.6,0,0,1,665.75,97.72Z" fill="#ebebeb"/>
<path d="M621.05,72a4.52,4.52,0,0,1,1.69-2.42,6,6,0,0,1,4.07-.49,4.4,4.4,0,0,1,2.85,2.27,6.17,6.17,0,0,1,1,4.68,5,5,0,0,1-3,3.64A5.12,5.12,0,0,1,622,78,6.56,6.56,0,0,1,621.05,72Z" fill="#e0e0e0"/>
<path d="M620.15,72a4.15,4.15,0,0,1,1.55-2.19,5.59,5.59,0,0,1,3.75-.45,4,4,0,0,1,2.61,2.08,5.74,5.74,0,0,1,.93,4.31,4.66,4.66,0,0,1-2.76,3.35A4.73,4.73,0,0,1,621,77.57,6,6,0,0,1,620.15,72Z" fill="#ebebeb"/>
<path d="M637.75,75a2.2,2.2,0,0,1,.86-1.21,3,3,0,0,1,2-.26,2.26,2.26,0,0,1,1.44,1.1,3.12,3.12,0,0,1,.5,2.34,2.52,2.52,0,0,1-1.5,1.82,2.6,2.6,0,0,1-2.85-.83A3.33,3.33,0,0,1,637.75,75Z" fill="#e0e0e0"/>
<path d="M637.29,75a2.15,2.15,0,0,1,.78-1.09,2.75,2.75,0,0,1,1.87-.22,2,2,0,0,1,1.32,1.09,2.89,2.89,0,0,1,.46,2.19,2.36,2.36,0,0,1-1.37,1.68,2.38,2.38,0,0,1-2.62-.77A3.07,3.07,0,0,1,637.29,75Z" fill="#ebebeb"/>
<path d="M532.62,129.81a8,8,0,0,1,.18-1.38c.17-.91.26-2.26.61-4a84.43,84.43,0,0,1,4.19-15A85,85,0,0,1,574.11,66.3a85.21,85.21,0,0,1,37.68-11.58,87.3,87.3,0,0,1,33.26,4.38A91.38,91.38,0,0,1,656,63.71a85.77,85.77,0,0,1,35.93,34.44,84.6,84.6,0,0,1,5.57,12c.81,2.08,1.46,4.21,2.12,6.36a57.48,57.48,0,0,1,1.59,6.56,86.31,86.31,0,0,1,1.1,27.35A93.31,93.31,0,0,1,699.52,164a83.39,83.39,0,0,1-4.84,12.77c-.94,2-2,4-3.11,6a59.54,59.54,0,0,1-3.59,5.67,84.73,84.73,0,0,1-8.3,10.31,85.7,85.7,0,0,1-43.12,24.83,91.33,91.33,0,0,1-11.76,1.85,87.31,87.31,0,0,1-33.34-3.71,85.1,85.1,0,0,1-33.79-20.28,86.24,86.24,0,0,1-18.6-26.81,81.32,81.32,0,0,1-4.38-12.69,87,87,0,0,1-2.19-11.09,84.73,84.73,0,0,1-.45-15.6c.08-1.8.3-3.14.37-4.05a10.8,10.8,0,0,1,.16-1.38s0,.47-.1,1.38-.25,2.26-.32,4.05a88.19,88.19,0,0,0,.57,15.58,86.64,86.64,0,0,0,6.63,23.68A86.64,86.64,0,0,0,558,201.14a85,85,0,0,0,55.32,24,88.43,88.43,0,0,0,11.51-.21,91,91,0,0,0,11.7-1.85,85.21,85.21,0,0,0,42.85-24.68,84.32,84.32,0,0,0,8.24-10.24c1.28-1.82,2.41-3.74,3.57-5.64a50.87,50.87,0,0,0,3.08-6,81.07,81.07,0,0,0,4.8-12.67,91.16,91.16,0,0,0,2.76-13.47,85.52,85.52,0,0,0-1.09-27.18c-.41-2.19-1-4.37-1.57-6.56a51.32,51.32,0,0,0-2.11-6.31,82.73,82.73,0,0,0-5.53-11.93,85.38,85.38,0,0,0-35.68-34.23,91.06,91.06,0,0,0-10.94-4.6,86.55,86.55,0,0,0-33.07-4.38,85,85,0,0,0-37.51,11.45,86.08,86.08,0,0,0-24.38,21.39,82,82,0,0,0-7.35,11.19,83.12,83.12,0,0,0-4.77,10.21,85.77,85.77,0,0,0-4.28,15c-.38,1.75-.52,3.1-.68,4S532.62,129.81,532.62,129.81Z" fill="#2f2e41" data-secondary="true"/>
<path d="M397.64,28.91s-.09.25-.31.72l-.4.89a7.72,7.72,0,0,0-.47,1.24,25.06,25.06,0,0,0-1.3,8.68c0,3.84.6,8.5,1.09,14a45,45,0,0,1-.05,8.76,20.53,20.53,0,0,1-.37,2.33,14.89,14.89,0,0,1-.65,2.35,27.14,27.14,0,0,1-1.92,4.67,33.25,33.25,0,0,1-6.84,8.37A66.72,66.72,0,0,1,377,87.82c-3.44,2.19-7.08,4.2-10.79,6.38a102.13,102.13,0,0,0-11.08,7.22,60.28,60.28,0,0,0-17.61,21.88,61.43,61.43,0,0,0-6.12,29.54,88.23,88.23,0,0,0,2.43,15.32c1.09,5,2.4,9.84,3.34,14.71a59.15,59.15,0,0,1,1.26,14.53A35,35,0,0,1,338,201a31.32,31.32,0,0,1-.79,3.45,22,22,0,0,1-1.21,3.29c-.44,1.09-1.1,2.08-1.61,3.07a36.66,36.66,0,0,1-9.13,9.66c-3.41,2.65-6.93,4.91-10.19,7.29-1.63,1.18-3.2,2.39-4.66,3.66a46.21,46.21,0,0,0-4.06,4l-1.79,2.15c-.54.74-1.09,1.5-1.55,2.19-.25.36-.52.72-.75,1.1l-.65,1.09c-.42.77-.89,1.51-1.26,2.28a47.91,47.91,0,0,0-4.85,17.7,44.89,44.89,0,0,0,1.1,13.86,23.26,23.26,0,0,0,.72,2.6,22.22,22.22,0,0,0,.73,2.27c.58,1.36,1,2.56,1.45,3.45l1.09,2c.23.47.34.71.34.71s-.14-.22-.39-.68l-1.1-2c-.5-.89-.91-2.08-1.5-3.44a19.34,19.34,0,0,1-.76-2.26,21.78,21.78,0,0,1-.76-2.62,45.2,45.2,0,0,1-1.26-13.86A48.06,48.06,0,0,1,300,244.1c.37-.78.84-1.52,1.26-2.29l.65-1.17c.24-.37.51-.73.76-1.09.51-.75,1-1.51,1.56-2.26L306,235.1a27.23,27.23,0,0,1,2-2.07,25.64,25.64,0,0,1,2.11-2.06c1.46-1.28,3-2.51,4.68-3.7,3.28-2.4,6.77-4.66,10.16-7.3a36.28,36.28,0,0,0,9-9.54c.55-1,1.09-2,1.56-3s.79-2.18,1.19-3.28a18.4,18.4,0,0,0,.77-3.39,23.27,23.27,0,0,0,.38-3.49,58.07,58.07,0,0,0-1.26-14.4c-.94-4.83-2.18-9.7-3.34-14.69a87.32,87.32,0,0,1-2.45-15.32A61.87,61.87,0,0,1,337,123.06,60.69,60.69,0,0,1,354.77,101a105,105,0,0,1,11.16-7.25c3.72-2.18,7.36-4.21,10.78-6.33a67.25,67.25,0,0,0,9.38-6.88,32.6,32.6,0,0,0,6.77-8.17,26.49,26.49,0,0,0,1.93-4.6,14.08,14.08,0,0,0,.63-2.31,19.91,19.91,0,0,0,.4-2.31,45.76,45.76,0,0,0,.08-8.68c-.42-5.47-1-10.12-1-14a24.37,24.37,0,0,1,1.41-8.75,6.64,6.64,0,0,1,.51-1.23c.16-.35.3-.64.42-.88Z" fill="#2f2e41" data-secondary="true"/>
<path d="M716.27,127.83c.5-2.68-3.19-5.08-6-5.47a15.83,15.83,0,0,1-4-.56c-2.75-1.09-3.68-4.77-6.34-6.06-2-.95-4.38-.31-6.41.58s-4,2.06-6.24,2.08c-1.93,0-4-.79-5.69.06-1.29.64-2,2.05-3.22,2.85a7.31,7.31,0,0,1-4,.87,11.42,11.42,0,0,0-4.15.47,3.29,3.29,0,0,0-2.19,3.21Z" fill="#fff"/>
<path d="M528.73,70.41c.48-3.47-4.38-6.32-8.1-6.56-1.76-.15-3.58.13-5.24-.45-3.61-1.26-5-5.92-8.55-7.4-2.64-1.09-5.66-.12-8.21,1.16s-5.07,2.9-7.91,3.08c-2.48.16-5.17-.76-7.33.44-1.62.91-2.46,2.77-3.95,3.87a9.49,9.49,0,0,1-5.17,1.4,14.34,14.34,0,0,0-5.31.87,4.19,4.19,0,0,0-2.67,4.27Z" fill="#fff"/>
<path d="M614.61,47.31c.29-2.09-2.65-3.79-4.86-4a12.24,12.24,0,0,1-3.14-.26c-2.19-.76-3-3.56-5.15-4.44-1.57-.67-3.39-.08-4.92.7a13.08,13.08,0,0,1-4.75,1.85c-1.49.08-3.09-.46-4.37.26-1,.55-1.48,1.66-2.38,2.32a5.72,5.72,0,0,1-3.1.84,8.69,8.69,0,0,0-3.19.52,2.54,2.54,0,0,0-1.6,2.57Z" fill="#fff"/>
<path d="M598.33,201.09c.49-3.47-4.37-6.32-8.09-6.62-1.76-.14-3.58.13-5.24-.45-3.61-1.26-5-5.92-8.56-7.39-2.64-1.1-5.66-.13-8.2,1.16s-5.07,2.89-7.91,3.07c-2.49.16-5.18-.76-7.35.45-1.6.91-2.45,2.77-3.93,3.86a9.45,9.45,0,0,1-5.17,1.4,14.44,14.44,0,0,0-5.32.88,4.2,4.2,0,0,0-2.67,4.26Z" fill="#fff"/>
<path d="M418.84,98l3.89,1-3.84,1.1a.79.79,0,0,0-.53.55l-.95,3.9-1.09-3.84a.77.77,0,0,0-.55-.54l-3.89-.94,3.84-1.09a.76.76,0,0,0,.52-.55l1-3.89,1.09,3.84A.78.78,0,0,0,418.84,98Z" fill="#fff"/>
<path d="M368.07,182,372,183l-3.85,1.1a.78.78,0,0,0-.52.55l-.95,3.9-1.1-3.84a.74.74,0,0,0-.55-.53l-3.89-1,3.83-1.09a.81.81,0,0,0,.54-.55l.94-3.9,1.09,3.84A.75.75,0,0,0,368.07,182Z" fill="#fff"/>
<path d="M364.23,310.62l3.88.94-3.82,1.09a.79.79,0,0,0-.54.55l-.94,3.9-1.1-3.84a.74.74,0,0,0-.55-.53l-3.89-1,3.84-1.1a.79.79,0,0,0,.53-.55l.95-3.9,1.09,3.84A.82.82,0,0,0,364.23,310.62Z" fill="#fff"/>
<path d="M730.41,223.69l3.89.94-3.83,1.1a.77.77,0,0,0-.54.56l-.94,3.88-1.09-3.84a.79.79,0,0,0-.56-.53l-3.89-1,3.85-1.09a.76.76,0,0,0,.52-.56l.95-3.88,1.1,3.83A.77.77,0,0,0,730.41,223.69Z" fill="#fff"/>
<path d="M727.6,150l3.89,1-3.84,1.09a.75.75,0,0,0-.53.56l-1,3.88-1.1-3.83a.79.79,0,0,0-.55-.53l-3.89-.94,3.83-1.1a.74.74,0,0,0,.54-.55l.94-3.89,1.09,3.84A.77.77,0,0,0,727.6,150Z" fill="#fff"/>
<path d="M671.57,34.15l3.89,1-3.83,1.1a.78.78,0,0,0-.54.56l-.94,3.88-1.09-3.83a.78.78,0,0,0-.56-.54l-3.89-.94,3.84-1.09a.75.75,0,0,0,.53-.56l.95-3.88,1.1,3.84A.75.75,0,0,0,671.57,34.15Z" fill="#fff"/>
<path d="M448.28,84.82l2.19.55-2.19.65a.47.47,0,0,0-.31.32l-.54,2.19-.65-2.19a.43.43,0,0,0-.33-.29l-2.19-.55,2.19-.66a.44.44,0,0,0,.31-.32l.53-2.18.66,2.18A.45.45,0,0,0,448.28,84.82Z" fill="#fff"/>
<path d="M430.15,80.32l1.39.33-1.37.41a.27.27,0,0,0-.18.19l-.34,1.39-.41-1.37a.25.25,0,0,0-.2-.18l-1.38-.34,1.36-.41a.25.25,0,0,0,.19-.19l.34-1.38.4,1.36A.31.31,0,0,0,430.15,80.32Z" fill="#fff"/>
<path d="M517.24,133.21l2.24.55-2.19.66a.43.43,0,0,0-.3.31l-.55,2.19-.64-2.19a.45.45,0,0,0-.33-.3l-2.25-.55,2.19-.66a.46.46,0,0,0,.31-.31l.54-2.25.65,2.19A.43.43,0,0,0,517.24,133.21Z" fill="#fff"/>
<path d="M545.49,44.05l3.8.93-3.76,1.1a.77.77,0,0,0-.51.53l-.92,3.83L543,46.7a.73.73,0,0,0-.55-.51l-3.8-.93,3.76-1.1a.75.75,0,0,0,.51-.54l.92-3.79,1.09,3.74A.76.76,0,0,0,545.49,44.05Z" fill="#fff"/>
<path d="M526.16,41.17l2.09.52-2.06.61a.41.41,0,0,0-.28.3l-.52,2.09-.6-2.06a.4.4,0,0,0-.31-.28l-2.08-.52,2.06-.6a.43.43,0,0,0,.29-.31l.5-2.07.61,2A.41.41,0,0,0,526.16,41.17Z" fill="#fff"/>
<path d="M711,168.49l2.24.54-2.18.66a.42.42,0,0,0-.31.32l-.55,2.24-.64-2.19a.49.49,0,0,0-.33-.31l-2.24-.54,2.18-.66a.44.44,0,0,0,.31-.32l.54-2.18.65,2.18A.44.44,0,0,0,711,168.49Z" fill="#fff"/>
<path d="M732,179.48l1.29.32-1.27.37a.25.25,0,0,0-.17.19l-.32,1.28-.37-1.27a.29.29,0,0,0-.19-.18l-1.28-.3,1.27-.39a.26.26,0,0,0,.18-.17l.3-1.29.37,1.27A.27.27,0,0,0,732,179.48Z" fill="#fff"/>
<path d="M654,46.54l1.29.3-1.27.38a.25.25,0,0,0-.18.18l-.31,1.29-.37-1.27a.27.27,0,0,0-.19-.17l-1.28-.32,1.27-.37a.27.27,0,0,0,.17-.19l.31-1.28.37,1.27A.29.29,0,0,0,654,46.54Z" fill="#fff"/>
<path d="M721.56,49.27l2.4.58-2.37.7a.49.49,0,0,0-.32.35l-.59,2.4-.7-2.36a.46.46,0,0,0-.34-.33L717.23,50l2.37-.67a.47.47,0,0,0,.33-.34l.58-2.41.7,2.38A.47.47,0,0,0,721.56,49.27Z" fill="#fff"/>
<path d="M531.92,90.18l3.48.85L532,92a.64.64,0,0,0-.47.49L530.64,96l-1-3.43a.72.72,0,0,0-.51-.48l-3.48-.85,3.44-1a.7.7,0,0,0,.47-.5l.85-3.48,1,3.44A.67.67,0,0,0,531.92,90.18Z" fill="#fff"/>
<path d="M588.49,153.22l3.48.86-3.44,1a.7.7,0,0,0-.47.5l-.85,3.48-1-3.44a.7.7,0,0,0-.5-.47l-3.48-.85,3.43-1a.66.66,0,0,0,.47-.5l.86-3.48,1,3.43A.64.64,0,0,0,588.49,153.22Z" fill="#fff"/>
<path d="M559.7,227.44l1.28.31-1.27.37a.25.25,0,0,0-.17.19l-.31,1.28-.38-1.27a.24.24,0,0,0-.19-.17l-1.28-.31,1.27-.38a.25.25,0,0,0,.18-.18l.31-1.29.38,1.27A.25.25,0,0,0,559.7,227.44Z" fill="#fff"/>
<path d="M572,167.81l1.58.38-1.56.46a.31.31,0,0,0-.21.22l-.38,1.56-.46-1.54a.32.32,0,0,0-.22-.22l-1.57-.37,1.55-.46a.32.32,0,0,0,.21-.23l.38-1.56.46,1.54A.32.32,0,0,0,572,167.81Z" fill="#fff"/>
<circle cx="440.64" cy="49.07" r="12.48" fill="#e0e0e0"/>
<path d="M335.8,326.65l.41,1.09.48,1.41a13.17,13.17,0,0,0,.75,1.92,34.67,34.67,0,0,0,7.86,11,41.38,41.38,0,0,0,3.57,3,23.12,23.12,0,0,0,2.07,1.44c.73.46,1.43,1,2.19,1.42a60.08,60.08,0,0,0,10.65,4.83,74.83,74.83,0,0,0,13.13,3,77.47,77.47,0,0,0,15.07.48c10.6-.57,22-2.77,34.4-4.52a152,152,0,0,1,19.31-1.56,85.28,85.28,0,0,1,20.38,2.29,142,142,0,0,1,20.5,6.73c6.82,2.76,13.65,5.88,20.63,8.94a201.88,201.88,0,0,0,21.67,8.42,99.63,99.63,0,0,0,23.45,4.49,62,62,0,0,0,12-.37l1.49-.19c.48-.07,1-.18,1.45-.27,1-.2,2-.36,2.92-.59a50.83,50.83,0,0,0,5.63-1.74,55.52,55.52,0,0,0,5.37-2.34c.86-.47,1.68-1,2.52-1.46l1.26-.73c.41-.25.79-.55,1.19-.82l2.37-1.66c.77-.57,1.5-1.21,2.25-1.81,1.52-1.17,2.87-2.52,4.3-3.79,5.47-5.25,10.32-11,15.31-16.46a96.33,96.33,0,0,1,15.82-14.65,48.87,48.87,0,0,1,4.45-2.8,20.29,20.29,0,0,1,2.33-1.17l2.34-1.1a47.28,47.28,0,0,1,9.77-2.74,76.83,76.83,0,0,1,19.34-.52c6.23.53,12.2,1.41,17.93,2.19s11.25,1.51,16.55,1.77a67.7,67.7,0,0,0,15-.64,41.64,41.64,0,0,0,12.61-4.15,38.1,38.1,0,0,0,9.37-6.92,48,48,0,0,0,6.13-7.66,52,52,0,0,0,3.76-6.92c1-2.07,1.63-3.88,2.19-5.35s.86-2.6,1.09-3.38.35-1.16.35-1.16-.35,1.61-1.32,4.59c-.51,1.46-1.17,3.28-2.12,5.38a53.45,53.45,0,0,1-3.73,7,46.27,46.27,0,0,1-6.13,7.74,37.73,37.73,0,0,1-9.42,7,41.35,41.35,0,0,1-12.8,4.26,66.65,66.65,0,0,1-15.13.7c-10.64-.5-22.08-2.86-34.5-3.92a75.79,75.79,0,0,0-19.21.53,46.89,46.89,0,0,0-9.66,2.73l-2.32,1.09a24.75,24.75,0,0,0-2.3,1.16,51.22,51.22,0,0,0-4.38,2.77,95.28,95.28,0,0,0-15.71,14.59c-4.93,5.47-9.75,11.22-15.31,16.5-1.43,1.28-2.79,2.64-4.33,3.82-.75.6-1.48,1.24-2.27,1.82l-2.39,1.68c-.4.28-.78.57-1.2.82l-1.27.75c-.85.49-1.7,1-2.55,1.47a54.06,54.06,0,0,1-5.47,2.37,51.48,51.48,0,0,1-5.7,1.77c-1,.23-2,.39-2.93.59-.49.1-1,.21-1.48.29l-1.5.17a61.94,61.94,0,0,1-12.1.38,99.44,99.44,0,0,1-23.56-4.5A202.88,202.88,0,0,1,507,368.76c-7-3.08-13.81-6.19-20.62-8.95A140.47,140.47,0,0,0,466,353.09a84.83,84.83,0,0,0-20.26-2.31,150.1,150.1,0,0,0-19.19,1.52c-12.35,1.73-23.81,3.91-34.45,4.46a76.65,76.65,0,0,1-15.14-.53,75.86,75.86,0,0,1-13.13-3.07,61.82,61.82,0,0,1-10.69-4.9,24.45,24.45,0,0,1-2.19-1.45,22.47,22.47,0,0,1-2.06-1.45,37.39,37.39,0,0,1-3.58-3.07,34.1,34.1,0,0,1-7.81-11.13,11.21,11.21,0,0,1-.72-1.93c-.19-.57-.34-1-.48-1.42A8,8,0,0,1,335.8,326.65Z" fill="#263238"/>
<path d="M553.41,147.74c-2-.4-93.71-11.56-93.71-11.56s-31.51,47.55-37,72.83c0,0,66.66,13.61,105.41,37.4a39.52,39.52,0,0,1,8.67,7.22h0s2.11-29.18,4.38-57.15A156.83,156.83,0,0,1,553.41,147.74Z" fill="#e0e0e0"/>
<path d="M553.41,147.74l-.1.25-.3.72c-.28.65-.67,1.6-1.16,2.86-1,2.53-2.39,6.29-3.9,11.23a167.63,167.63,0,0,0-4.5,18.22c-.35,1.8-.63,3.67-1,5.59s-.57,3.94-.76,6c-.45,4.13-.71,8.51-1.1,13.13-.7,9.2-1.46,19.28-2.28,30.09q-.61,8.11-1.27,16.77v1c.39-.12-.53.26-.45.18l-.73-.79c-.51-.52-1-1-1.56-1.53a36.43,36.43,0,0,0-3.36-2.83,71.33,71.33,0,0,0-7.66-4.69,245.5,245.5,0,0,0-34.81-15.7c-12.43-4.62-25.55-8.76-39.12-12.42-9-2.44-17.93-4.67-26.7-6.57l-.27-.05.05-.29A109.6,109.6,0,0,1,430,188.15c3-6.57,6.24-12.84,9.54-18.86,6.64-12,13.39-23.17,20-33.29l.09-.13h.14l68.06,8.67,19,2.34,4.95.63,1.69.23-1.75-.2-5-.59-19-2.28-67.94-8.25.23-.11c-6.57,10.12-13.34,21.26-20,33.28-3.28,6-6.5,12.3-9.51,18.83A109.16,109.16,0,0,0,423,209.09l-.22-.33c8.75,1.86,17.71,4.09,26.73,6.56,13.58,3.69,26.71,7.82,39.16,12.44a247.31,247.31,0,0,1,34.88,15.77,73.48,73.48,0,0,1,7.66,4.75,38.8,38.8,0,0,1,3.41,2.86c.53.51,1.09,1,1.56,1.56l.74.81c.12,0-.82.25-.41.11v-1c.45-5.76.88-11.36,1.3-16.76.84-10.81,1.63-20.89,2.35-30.09.39-4.6.66-9,1.1-13.13.2-2.07.53-4.07.78-6s.63-3.8,1-5.61a165.9,165.9,0,0,1,4.59-18.23c1.56-4.93,3-8.67,4-11.19.51-1.26.93-2.19,1.21-2.84l.33-.71Z" fill="#2f2e41" data-secondary="true"/>
<rect x="376.13" y="167.3" width="182.37" height="4.61" rx="2.11" transform="translate(210.62 595.35) rotate(-78.86)" fill="#0071f2" data-primary="true"/>
<rect x="376.13" y="167.3" width="182.37" height="4.61" rx="2.11" transform="translate(210.62 595.35) rotate(-78.86)" opacity="0.3" style="isolation:isolate"/>
<path d="M450.65,136.09l10.5,1.18,25.36,2.89,30.54,3.42,26.44,3,8.75,1c1.36.15,2.77.45,4.12.46h.19c1.74.2,1.73-2.55,0-2.73l-10.5-1.18-25.34-2.83-30.55-3.42-26.47-3-8.75-1a37.89,37.89,0,0,0-4.12-.46h-.18c-1.75-.2-1.74,2.53,0,2.73Z" fill="#0071f2" data-primary="true"/>
<polygon points="445.08 172.06 506.27 174.33 506.55 243.89 488.37 235.31 445.08 172.06" opacity="0.3" style="isolation:isolate"/>
<path d="M370.2,219.31c.73-1.44,8.83-48.36,36.11-53.94l97.07,6.69s-22.61,52.6-16.18,71.27Z" fill="#fff"/>
<path d="M370.2,219.31l.58.11,1.69.32,6.49,1.31,24.25,4.9,84,17.11-.31.35a25.19,25.19,0,0,1-1.09-7,54.35,54.35,0,0,1,.27-7.22,114.66,114.66,0,0,1,2.63-14.61A264.84,264.84,0,0,1,498,185c1.65-4.38,3.34-8.76,5.14-13l.24.39-97.07-6.75h.06a30.14,30.14,0,0,0-7.12,2.56,35.25,35.25,0,0,0-5.94,4.1,49.1,49.1,0,0,0-8.62,10.08,93.44,93.44,0,0,0-9.28,19.3c-2,5.57-3.17,10-4,13.06-.38,1.5-.68,2.66-.88,3.46-.09.37-.18.67-.24.88a.85.85,0,0,1-.11.28l.08-.29a5.62,5.62,0,0,1,.21-.89l.81-3.47c.75-3,1.9-7.51,3.86-13.13a93,93,0,0,1,9.2-19.41A49.64,49.64,0,0,1,393,172a34.41,34.41,0,0,1,6-4.17,30.46,30.46,0,0,1,7.24-2.63h.05l97.08,6.63h.39l-.15.36q-2.67,6.36-5.13,13a267.39,267.39,0,0,0-9.25,29.54,111.79,111.79,0,0,0-2.59,14.52,51.62,51.62,0,0,0-.29,7.14,24.89,24.89,0,0,0,1.09,6.86l.15.44-.46-.09-84.24-17.42-24.13-5-6.41-1.34-1.64-.35Z" fill="#2f2e41" data-secondary="true"/>
<path d="M437.84,124.36S410.7,139.06,402.16,161c0,0,51.24-14.49,84,4.37,0,0-4.45-29.3,13.29-35Z" fill="#fff"/>
<path d="M437.84,124.36h.29l.85.07,3.28.28,12.56,1.09L499.45,130l1.09.11-1.09.39a15.15,15.15,0,0,0-7.53,5.29,24.06,24.06,0,0,0-4.37,8.76A44.69,44.69,0,0,0,486,154.7a61.17,61.17,0,0,0,.43,10.65l.08.56-.5-.27a68.33,68.33,0,0,0-16.41-6.56c-12.28-3.14-24.64-3.53-36.1-2.82a170.62,170.62,0,0,0-31.37,4.94l-.46.12.19-.43a59,59,0,0,1,11.76-17.81,93.35,93.35,0,0,1,12.23-10.94,98,98,0,0,1,8.69-5.93c1-.64,1.83-1.09,2.37-1.39s.84-.44.84-.44l-.19.13-.61.38c-.53.31-1.33.79-2.34,1.44-2,1.3-5,3.28-8.6,6a97.44,97.44,0,0,0-12.12,10.94A59.79,59.79,0,0,0,402.43,161l-.28-.31a169.08,169.08,0,0,1,31.46-5c11.44-.72,23.86-.35,36.22,2.81a68.93,68.93,0,0,1,16.52,6.64l-.41.28a61.52,61.52,0,0,1-.43-10.77,46,46,0,0,1,1.6-10.28,24.73,24.73,0,0,1,4.46-8.94,17.81,17.81,0,0,1,3.6-3.28,18.13,18.13,0,0,1,4.26-2.09l.05.49-44.55-4.37-12.61-1.33-3.29-.35-.85-.1Z" fill="#2f2e41" data-secondary="true"/>
<path d="M486.16,165.32a4.12,4.12,0,0,1-.86,0l-2.45-.06-9-.35c-7.6-.34-18.1-.91-29.67-1.6l-29.67-1.76-9-.54-2.44-.17a8.17,8.17,0,0,1-.85-.09,4,4,0,0,1,.85,0l2.45.07,9,.35c7.66.33,18.09.9,29.68,1.59l29.66,1.76,9,.54,2.45.16A4.81,4.81,0,0,1,486.16,165.32Z" fill="#2f2e41" data-secondary="true"/>
<path d="M496.91,126.08a2,2,0,0,1-.6,0L494.6,126l-6.27-.3c-5.29-.31-12.6-.79-20.66-1.5s-15.32-1.58-20.59-2.37c-2.63-.38-4.74-.73-6.2-1l-1.67-.33a3.8,3.8,0,0,1-.58-.15,2,2,0,0,1,.59,0l1.7.23c1.46.2,3.58.5,6.21.83,5.26.68,12.54,1.46,20.59,2.19s15.32,1.25,20.65,1.66l6.25.49,1.7.17A2.41,2.41,0,0,1,496.91,126.08Z" fill="#2f2e41" data-secondary="true"/>
<path d="M461.77,98.91s-18.16,10.94-23.14,21.48c0,0,36.2-5.33,58.28,5.69,0,0-9.62-15.65,5.84-22.88Z" fill="#fff"/>
<path d="M461.77,98.91h.74l2.19.19,8.36.81,29.72,3,.89.1-.81.38a17.3,17.3,0,0,0-5.13,3.54,11.83,11.83,0,0,0-3.14,5.61c-1,4.37.24,9.21,2.56,13.36l.42.73-.78-.34-2.54-1.09a22.9,22.9,0,0,0-2.61-1.1,55.76,55.76,0,0,0-5.47-1.7,105.78,105.78,0,0,0-25.49-3.08,158.86,158.86,0,0,0-22,1.22l-.44,0,.2-.37A37.12,37.12,0,0,1,446.7,110a86.72,86.72,0,0,1,7.83-6.34c2.18-1.63,4.06-2.82,5.3-3.6.63-.4,1.1-.69,1.44-.88a2.19,2.19,0,0,1,.5-.27,5,5,0,0,1-.47.33l-1.4.93c-1.22.82-3,2-5.23,3.7a89,89,0,0,0-7.71,6.4,36.41,36.41,0,0,0-8.12,10.22l-.24-.33a155.3,155.3,0,0,1,22.09-1.3,105.47,105.47,0,0,1,25.57,3,58,58,0,0,1,5.58,1.73,23.13,23.13,0,0,1,2.63,1.09L497,125.8l-.37.41a23.87,23.87,0,0,1-2.58-6.77,16,16,0,0,1,0-7,12.4,12.4,0,0,1,3.28-5.86,18.11,18.11,0,0,1,5.27-3.61l.09.48-29.63-3.19-8.31-1L462.6,99,462,99C461.83,98.93,461.77,98.92,461.77,98.91Z" fill="#2f2e41" data-secondary="true"/>
<path d="M501.67,102.74a9.13,9.13,0,0,1-1.49.77,39.68,39.68,0,0,1-4.25,1.64A43.43,43.43,0,0,1,481.07,107a39,39,0,0,1-14.56-3.46,10,10,0,0,1-3.54-2.88,6.61,6.61,0,0,1-.62-1.1c-.1-.26-.15-.4-.13-.41a13.49,13.49,0,0,0,.93,1.37,10.57,10.57,0,0,0,3.54,2.64,41.17,41.17,0,0,0,14.41,3.29,46.88,46.88,0,0,0,14.72-1.63c1.82-.54,3.28-1.1,4.29-1.43A9.52,9.52,0,0,1,501.67,102.74Z" fill="#2f2e41" data-secondary="true"/>
<path d="M484,183.84a.84.84,0,0,1-.24.07l-.72.13-2.79.5L470,186.26c-8.67,1.47-20.63,3.57-33.8,6.09s-25.08,5-33.68,6.82l-10.17,2.19-2.78.58-.72.13a.53.53,0,0,1-.25,0,.62.62,0,0,1,.24-.08l.71-.19,2.74-.69c2.39-.58,5.86-1.39,10.15-2.35,8.57-1.94,20.47-4.47,33.65-7s25.16-4.55,33.84-5.92c4.38-.69,7.87-1.22,10.31-1.56l2.8-.38.73-.09Z" fill="#2f2e41" data-secondary="true"/>
<path d="M466,198a2.13,2.13,0,0,1-.57.11l-1.67.21-6.13.7c-5.17.59-12.31,1.48-20.16,2.65s-14.95,2.43-20.07,3.38l-6.07,1.09-1.65.3a3.8,3.8,0,0,1-.58.06,1.75,1.75,0,0,1,.56-.18l1.63-.4c1.42-.33,3.48-.79,6-1.3,5.09-1.09,12.18-2.36,20.05-3.54s15-2,20.21-2.5c2.59-.25,4.7-.41,6.16-.51l1.67-.1A1.87,1.87,0,0,1,466,198Z" fill="#2f2e41" data-secondary="true"/>
<path d="M465.54,145a4.79,4.79,0,0,1-1.31,0c-.83,0-2-.11-3.54-.14a67.67,67.67,0,0,0-23,3.46c-1.41.47-2.56.87-3.35,1.17a5.9,5.9,0,0,1-1.23.4,5.54,5.54,0,0,1,1.16-.6c.75-.36,1.88-.83,3.28-1.35a58.88,58.88,0,0,1,23.15-3.48c1.51.08,2.72.19,3.55.31A7.68,7.68,0,0,1,465.54,145Z" fill="#263238"/>
<path d="M514,218.24a2.62,2.62,0,0,1,.12-.68l.46-2c.4-1.71,1.09-4.15,2-7.16a182,182,0,0,1,20.17-44.49c1.68-2.64,3.08-4.75,4.09-6.18l1.18-1.64a4,4,0,0,1,.44-.56,3.88,3.88,0,0,1-.35.63l-1.09,1.69c-1,1.47-2.31,3.6-3.93,6.28a201.8,201.8,0,0,0-20.13,44.39c-.94,3-1.66,5.41-2.13,7.09-.23.8-.42,1.44-.57,1.94A3,3,0,0,1,514,218.24Z" fill="#2f2e41" data-secondary="true"/>
<path d="M512,198.4c-.14-.07,2-5.23,4.68-11.56s5.07-11.39,5.21-11.32-2,5.23-4.68,11.55S512.13,198.46,512,198.4Z" fill="#2f2e41" data-secondary="true"/>
<path d="M486.16,133.44c0,.15-10.15,1.82-22.72,3.71s-22.78,3.28-22.8,3.15,10.14-1.81,22.72-3.71S486.13,133.28,486.16,133.44Z" fill="#263238"/>
<path d="M481.28,85c5.11.14,9.24.49,13.55,3,2.19,1.22,4.26,3.75,6.72,4.37,2.19.56,4.56.1,6.86.22a12.69,12.69,0,0,1,9.17,4.54s-5.34-2.8-10.79-.34-7.66,5.28-13.73,2c-3.86-2-11.68-2.83-14.22-.78Z" fill="#0071f2" data-primary="true"/>
<path d="M481.28,85v.24a5.2,5.2,0,0,1-.12.68l-.46,2.61c-.42,2.25-1,5.47-1.75,9.52l-.16-.09a6.63,6.63,0,0,1,3.15-1.1,18.46,18.46,0,0,1,3.64-.07,22.84,22.84,0,0,1,3.85.6,16.39,16.39,0,0,1,3.9,1.41,11,11,0,0,0,4.08,1.3,8.24,8.24,0,0,0,4.33-.93c1.39-.65,2.75-1.45,4.2-2.19a15.08,15.08,0,0,1,2.25-.9l.6-.17.61-.12a9.93,9.93,0,0,1,1.22-.16,14.07,14.07,0,0,1,7,1.32l-.17.2A12,12,0,0,0,510.74,93a14,14,0,0,0-3.77-.37,34.56,34.56,0,0,1-3.67,0,9.59,9.59,0,0,1-1.76-.26,6.58,6.58,0,0,1-1.6-.66,19.56,19.56,0,0,1-2.65-1.88,15.87,15.87,0,0,0-4.9-3,21.64,21.64,0,0,0-4.55-1.27,32.49,32.49,0,0,0-3.54-.4c-1-.07-1.73-.1-2.19-.12h0l2.25.07a32.81,32.81,0,0,1,3.56.38,21.49,21.49,0,0,1,4.59,1.24A22.58,22.58,0,0,1,495,87.94a21.65,21.65,0,0,1,2.45,1.79,19.39,19.39,0,0,0,2.64,1.87,5.77,5.77,0,0,0,1.54.64,9,9,0,0,0,1.72.25c1.18.06,2.39,0,3.65-.06a14.19,14.19,0,0,1,3.84.37A12.3,12.3,0,0,1,517.72,97l.33.43-.49-.23a13.94,13.94,0,0,0-6.91-1.31,5.43,5.43,0,0,0-1.2.17l-.59.12-.58.16a14,14,0,0,0-2.19.9c-1.44.68-2.8,1.48-4.21,2.19a8.49,8.49,0,0,1-4.45.94A10.91,10.91,0,0,1,493.24,99a16.08,16.08,0,0,0-3.84-1.4,22.65,22.65,0,0,0-3.82-.6,16.66,16.66,0,0,0-3.6,0,6.46,6.46,0,0,0-3.06,1.09l-.19.14V98l1.86-9.55c.22-1.09.38-2,.5-2.57a2.86,2.86,0,0,1,.14-.67A1.6,1.6,0,0,1,481.28,85Z" fill="#2f2e41" data-secondary="true"/>
<path d="M505.13,94.37a7.65,7.65,0,0,0-1.46.6,14.59,14.59,0,0,0-1.46.89c-.55.37-1.1.79-1.78,1.18a8,8,0,0,1-1.95.89,5,5,0,0,1-1.77.13,3,3,0,0,1-1.09-.36c-.24-.14-.36-.25-.35-.27a4.18,4.18,0,0,0,1.5.44,4.72,4.72,0,0,0,1.67-.18,8.1,8.1,0,0,0,1.89-.87c.64-.39,1.22-.81,1.77-1.16a14.08,14.08,0,0,1,1.52-.85,4.87,4.87,0,0,1,1.09-.38A1,1,0,0,1,505.13,94.37Z" fill="#2f2e41" data-secondary="true"/>
<g opacity="0.3">
<path d="M495,97.83c-1.66-1.1-2.84-2.19-4.49-3.29a4.58,4.58,0,0,1-1.81-1.79,2.41,2.41,0,0,1,.73-2.87,3.37,3.37,0,0,1,3.69.18A17.59,17.59,0,0,1,496,92.72a5.31,5.31,0,0,0,3.38,1.8,7.64,7.64,0,0,0,3-.81,4.3,4.3,0,0,1,3-.3c.25.09.79.28.83.54s-.29.25-.67.27a3.59,3.59,0,0,0-.86.14,7.85,7.85,0,0,0-2.73,1.39,16.07,16.07,0,0,1-3.29,2,5.3,5.3,0,0,1-3.6.12"/>
</g>
<path d="M334,219.31c-.92,29.12,22.75,61.47,48.36,75.39,5.42,2.94,11.42,5.47,15,10.48s2.48,10.94-3.28,13.13l93.49,19.28,54.62-51.1,6.17-24.6-38.15-7.28-8.13,9.7L439.5,252.46l-3.67-13.29Z" fill="#0071f2" data-primary="true"/>
<path d="M497.23,328.52c0,.15-20.32-3.71-45.3-8.63s-45.23-9-45.19-9.19,20.3,3.7,45.3,8.63S497.26,328.34,497.23,328.52Z" fill="#2f2e41" data-secondary="true"/>
<path d="M339.93,220.26a1.82,1.82,0,0,1,0,.33,5.87,5.87,0,0,0,.1,1c.08.87.19,2.12.38,3.75a84,84,0,0,0,2.72,13.6c3.28,11.17,11.8,25.62,25.16,37.52A112.51,112.51,0,0,0,388.8,291a65.06,65.06,0,0,1,9.31,5.95,36.35,36.35,0,0,1,6.78,6.85,11,11,0,0,1,1.7,3.87,10.68,10.68,0,0,1,.08,3.78,11.71,11.71,0,0,1-2.32,5.47,9.22,9.22,0,0,1-2.91,2.43,5.37,5.37,0,0,1-1.22.49,9.37,9.37,0,0,0,1.17-.59,9.67,9.67,0,0,0,2.79-2.46,11.74,11.74,0,0,0,2.18-5.47,10.23,10.23,0,0,0-.12-3.66,10.76,10.76,0,0,0-1.67-3.72,36.29,36.29,0,0,0-6.74-6.71,66.12,66.12,0,0,0-9.27-5.86A111.42,111.42,0,0,1,368,276.92c-13.45-12-21.88-26.54-25.16-37.83a78.62,78.62,0,0,1-2.55-13.69c-.16-1.63-.24-2.9-.29-3.76v-1A1.72,1.72,0,0,1,339.93,220.26Z" fill="#2f2e41" data-secondary="true"/>
<path d="M507.05,318.72c0,.15-24.68-4.58-55.05-10.56S397,297.22,397,297s24.67,4.57,55.07,10.56S507.09,318.55,507.05,318.72Z" fill="#2f2e41" data-secondary="true"/>
<path d="M518.16,309.83c0,.15-32.47-6.1-72.46-14s-72.4-14.39-72.38-14.55,32.48,6.1,72.49,14S518.19,309.68,518.16,309.83Z" fill="#2f2e41" data-secondary="true"/>
<path d="M527.7,300c0,.15-38.06-7.21-84.94-16.42s-84.86-16.84-84.83-17S396,273.79,442.87,283,527.73,299.9,527.7,300Z" fill="#2f2e41" data-secondary="true"/>
<path d="M538.09,290.33c0,.16-42.35-8.05-94.52-18.32s-94.45-18.73-94.42-18.89,42.35,8.06,94.53,18.33S538.09,290.18,538.09,290.33Z" fill="#2f2e41" data-secondary="true"/>
<path d="M543.86,279.78c0,.15-45.11-8.59-100.66-19.53s-100.59-19.95-100.56-20.1,45.1,8.59,100.66,19.54S543.89,279.62,543.86,279.78Z" fill="#2f2e41" data-secondary="true"/>
<path d="M438.06,247.24h-.26l-.75-.12-2.85-.51-10.47-2-34.53-6.72-34.5-6.88-10.44-2.19-2.83-.62-.73-.17c-.17,0-.25-.07-.24-.08a1,1,0,0,1,.25,0l.74.12,2.86.51,10.48,2,34.51,6.76,34.49,6.88,10.44,2.19,2.83.61.74.18Z" fill="#2f2e41" data-secondary="true"/>
<path d="M547.25,268.17c0,.15-9.57-1.6-21.32-3.92s-21.24-4.31-21.22-4.46,9.59,1.59,21.33,3.9S547.28,268,547.25,268.17Z" fill="#2f2e41" data-secondary="true"/>
<path d="M378,246.71a27.47,27.47,0,0,1,.78-5.41,26.23,26.23,0,0,1,1.34-5.3,27.36,27.36,0,0,1-.78,5.41A26.23,26.23,0,0,1,378,246.71Z" fill="#2f2e41" data-secondary="true"/>
<path d="M420.61,266.86a26,26,0,0,1,.78-5.41,26.3,26.3,0,0,1,1.33-5.31,26.53,26.53,0,0,1-.78,5.47A26.42,26.42,0,0,1,420.61,266.86Z" fill="#2f2e41" data-secondary="true"/>
<path d="M518.56,286.36a28,28,0,0,1,.81-5.61,27.07,27.07,0,0,1,1.38-5.47,28.77,28.77,0,0,1-.82,5.61A28.45,28.45,0,0,1,518.56,286.36Z" fill="#263238"/>
<path d="M466.15,289.26a33.5,33.5,0,0,1,.94-6.22,35.57,35.57,0,0,1,1.48-6.11,34.34,34.34,0,0,1-.93,6.22A35.6,35.6,0,0,1,466.15,289.26Z" fill="#2f2e41" data-secondary="true"/>
<path d="M382.86,271a48.39,48.39,0,0,1,2-10.31A48.26,48.26,0,0,1,382.86,271Z" fill="#2f2e41" data-secondary="true"/>
<path d="M422.86,290.6a23.47,23.47,0,0,1,.74-5.21,24.3,24.3,0,0,1,1.29-5.1,48.39,48.39,0,0,1-2,10.31Z" fill="#263238"/>
<path d="M497.82,305.37a21.27,21.27,0,0,1,.67-4.9,22.13,22.13,0,0,1,1.23-4.8,21.42,21.42,0,0,1-.66,4.91A22.81,22.81,0,0,1,497.82,305.37Z" fill="#263238"/>
<path d="M461.11,309.47a48.39,48.39,0,0,1,2-10.11,23.22,23.22,0,0,1-.71,5.11A22.13,22.13,0,0,1,461.11,309.47Z" fill="#263238"/>
<path d="M396.75,296.36a24.59,24.59,0,0,1,.73-5.19,24.14,24.14,0,0,1,1.29-5.1,24.14,24.14,0,0,1-.73,5.21A24.75,24.75,0,0,1,396.75,296.36Z" fill="#2f2e41" data-secondary="true"/>
<path d="M504.76,318.06a26.73,26.73,0,0,1,.77-5.41,26.14,26.14,0,0,1,1.34-5.29,27.37,27.37,0,0,1-.78,5.4A26.72,26.72,0,0,1,504.76,318.06Z" fill="#263238"/>
<path d="M433.19,315.93a55.53,55.53,0,0,1,2.15-10.88,54,54,0,0,1-2.15,10.88Z" fill="#263238"/>
<path d="M478,334.61a36,36,0,0,1,1.76-8.87,18.48,18.48,0,0,1-.61,4.5A17.83,17.83,0,0,1,478,334.61Z" fill="#263238"/>
<path d="M474.94,259.51a9.62,9.62,0,0,1-.35,3.29,10.1,10.1,0,0,1-.92,3.18,19.65,19.65,0,0,1,1.27-6.47Z" fill="#263238"/>
<path d="M430,286.3a7.11,7.11,0,1,1-5.6-8.36,7.11,7.11,0,0,1,5.6,8.36Z" fill="#2f2e41" data-secondary="true"/>
<circle cx="451.45" cy="290.51" r="7.11" fill="#2f2e41" data-secondary="true"/>
<path d="M486.86,297.5a7.12,7.12,0,1,1-5.6-8.36,7.13,7.13,0,0,1,5.6,8.36Z" fill="#263238"/>
<path d="M331.85,221.45l10.29,2,24.59,4.85,29.88,5.93,25.72,5.08,8.53,1.67a40.25,40.25,0,0,0,4.05.8h.19l-1.92-1.9,3.68,13.28a2.68,2.68,0,0,0,1.91,1.9l21.13,4,33.7,6.38,7.74,1.46a2.79,2.79,0,0,0,2.67-.71l8.13-9.68-2.66.7,33.39,6.38,4.75.89a2.73,2.73,0,1,0,1.46-5.27l-33.39-6.39-4.75-.91a2.77,2.77,0,0,0-2.67.7l-8.13,9.7,2.66-.71-21.13-4L448,251.25l-7.75-1.46,1.9,1.91-3.68-13.28a2.71,2.71,0,0,0-1.91-1.91l-10.3-2-24.58-4.85-29.87-5.88-25.73-5.07c-4.19-.82-8.37-1.73-12.58-2.47h-.18a2.73,2.73,0,1,0-1.45,5.27Z" fill="#0071f2" data-primary="true"/>
<path d="M725.73,278.58c5-12.6,3.57-40.48-23-51.86-25-10.71-46.51,3.64-54.45,20.52-9.42-14.56-42.18-24.32-69.85-15.76-22.27,6.9-36.63,28.67-38,51.93-13.58-9-29.45-15-44.74-9.42-12.41,4.48-24.07,14.3-24.3,30.56-13.66-8.26-29.69-6.64-44.75-1.35s-26.89,37.9-32.36,52.89l7.83-.45c17.51-2.12,34.92-6.47,52.45-4.79,22.09,2.12,42,13.53,62.56,21.88s44.72,13.39,64.37,3.11c21.16-11.07,31.79-37.28,53.87-46.38,29.2-12,65.77,10.94,93-5.09,11-6.48,18-18.36,21.2-30.7.86-3.2,1.18-9.05,1.64-12.32C745.39,273.76,733.83,273.2,725.73,278.58Z" fill="#fff"/>
<path d="M409.23,327.3a20.56,20.56,0,0,0-18.84-4.88,25.16,25.16,0,0,0-15.62,12.12c-3.37,5.88-4.38,13.45-3.71,20.19,0,0,19.87,4.22,37.48-.5l8.61-19.32Z" fill="#fff"/>
<g opacity="0.1">
<path d="M711.8,270a29.15,29.15,0,0,0-35.38,20,24.17,24.17,0,0,0-22.35,1.41l9.38,12.24,27.76.53,11.19-8.29Z"/>
</g>
<path d="M735.82,298.44c-1.52-33.5-33.24-30.28-41.06-25.59a29.63,29.63,0,0,0-14,22.33,37.58,37.58,0,0,0-29.54-3s-14.22,4.57-15.9,19.28" fill="#fff"/>
<path d="M635.31,311.44v-.28l.12-.83c.07-.37.14-.82.22-1.33s.3-1.09.49-1.81a12.9,12.9,0,0,1,.79-2.18,18.93,18.93,0,0,1,1.25-2.51,23.87,23.87,0,0,1,4.38-5.28,27.34,27.34,0,0,1,7-4.61,12.79,12.79,0,0,1,2.19-.82c.74-.23,1.51-.45,2.31-.62a31.93,31.93,0,0,1,5-.81,37.72,37.72,0,0,1,21.88,4.57l-.41.22a29.68,29.68,0,0,1,4.89-13.63A27.87,27.87,0,0,1,696,271.9a32.26,32.26,0,0,1,13.22-2.19,31.22,31.22,0,0,1,11.85,2.68,26.48,26.48,0,0,1,4.72,2.88,22.83,22.83,0,0,1,3.63,3.59,25.61,25.61,0,0,1,4.26,7.66c.48,1.19.73,2.37,1.09,3.42a16.45,16.45,0,0,1,.58,2.95c.14.89.22,1.7.31,2.39s.09,1.29.12,1.76,0,.81,0,1.1a2.16,2.16,0,0,1,0,.36,2.25,2.25,0,0,1-.06-.36c0-.28-.06-.63-.11-1.1s-.08-1.09-.16-1.75-.23-1.48-.36-2.36-.39-1.86-.62-2.93a19.27,19.27,0,0,0-1.1-3.39,25.41,25.41,0,0,0-4.25-7.47,23.69,23.69,0,0,0-3.59-3.49,26.91,26.91,0,0,0-4.66-2.8,30.44,30.44,0,0,0-11.66-2.58,31.63,31.63,0,0,0-13,2.19,27.18,27.18,0,0,0-10.43,9.42A29,29,0,0,0,681,295.25v.42l-.38-.2a37.41,37.41,0,0,0-21.58-4.59,36.6,36.6,0,0,0-4.89.78,23.45,23.45,0,0,0-2.3.6,12.28,12.28,0,0,0-2.12.79,27.4,27.4,0,0,0-6.93,4.47,23.89,23.89,0,0,0-4.38,5.18,18.26,18.26,0,0,0-1.26,2.45,12.08,12.08,0,0,0-.84,2.19c-.19.66-.41,1.24-.52,1.77s-.19.95-.26,1.32l-.17.81A.72.72,0,0,1,635.31,311.44Z" fill="#2f2e41" data-secondary="true"/>
<path d="M335.8,326.65l.41,1.09.48,1.41a13.17,13.17,0,0,0,.75,1.92,34.67,34.67,0,0,0,7.86,11,41.38,41.38,0,0,0,3.57,3,23.12,23.12,0,0,0,2.07,1.44c.73.46,1.43,1,2.19,1.42a60.08,60.08,0,0,0,10.65,4.83,74.83,74.83,0,0,0,13.13,3,77.47,77.47,0,0,0,15.07.48c10.6-.57,22-2.77,34.4-4.52a152,152,0,0,1,19.31-1.56,85.28,85.28,0,0,1,20.38,2.29,142,142,0,0,1,20.5,6.73c6.82,2.76,13.65,5.88,20.63,8.94a201.88,201.88,0,0,0,21.67,8.42,99.63,99.63,0,0,0,23.45,4.49,62,62,0,0,0,12-.37l1.49-.19c.48-.07,1-.18,1.45-.27,1-.2,2-.36,2.92-.59a50.83,50.83,0,0,0,5.63-1.74,55.52,55.52,0,0,0,5.37-2.34c.86-.47,1.68-1,2.52-1.46l1.26-.73c.41-.25.79-.55,1.19-.82l2.37-1.66c.77-.57,1.5-1.21,2.25-1.81,1.52-1.17,2.87-2.52,4.3-3.79,5.47-5.25,10.32-11,15.31-16.46a96.33,96.33,0,0,1,15.82-14.65,48.87,48.87,0,0,1,4.45-2.8,20.29,20.29,0,0,1,2.33-1.17l2.34-1.1a47.28,47.28,0,0,1,9.77-2.74,76.83,76.83,0,0,1,19.34-.52c6.23.53,12.2,1.41,17.93,2.19s11.25,1.51,16.55,1.77a67.7,67.7,0,0,0,15-.64,41.64,41.64,0,0,0,12.61-4.15,38.1,38.1,0,0,0,9.37-6.92,48,48,0,0,0,6.13-7.66,52,52,0,0,0,3.76-6.92c1-2.07,1.63-3.88,2.19-5.35s.86-2.6,1.09-3.38.35-1.16.35-1.16-.35,1.61-1.32,4.59c-.51,1.46-1.17,3.28-2.12,5.38a53.45,53.45,0,0,1-3.73,7,46.27,46.27,0,0,1-6.13,7.74,37.73,37.73,0,0,1-9.42,7,41.35,41.35,0,0,1-12.8,4.26,66.65,66.65,0,0,1-15.13.7c-10.64-.5-22.08-2.86-34.5-3.92a75.79,75.79,0,0,0-19.21.53,46.89,46.89,0,0,0-9.66,2.73l-2.32,1.09a24.75,24.75,0,0,0-2.3,1.16,51.22,51.22,0,0,0-4.38,2.77,95.28,95.28,0,0,0-15.71,14.59c-4.93,5.47-9.75,11.22-15.31,16.5-1.43,1.28-2.79,2.64-4.33,3.82-.75.6-1.48,1.24-2.27,1.82l-2.39,1.68c-.4.28-.78.57-1.2.82l-1.27.75c-.85.49-1.7,1-2.55,1.47a54.06,54.06,0,0,1-5.47,2.37,51.48,51.48,0,0,1-5.7,1.77c-1,.23-2,.39-2.93.59-.49.1-1,.21-1.48.29l-1.5.17a61.94,61.94,0,0,1-12.1.38,99.44,99.44,0,0,1-23.56-4.5A202.88,202.88,0,0,1,507,368.76c-7-3.08-13.81-6.19-20.62-8.95A140.47,140.47,0,0,0,466,353.09a84.83,84.83,0,0,0-20.26-2.31,150.1,150.1,0,0,0-19.19,1.52c-12.35,1.73-23.81,3.91-34.45,4.46a76.65,76.65,0,0,1-15.14-.53,75.86,75.86,0,0,1-13.13-3.07,61.82,61.82,0,0,1-10.69-4.9,24.45,24.45,0,0,1-2.19-1.45,22.47,22.47,0,0,1-2.06-1.45,37.39,37.39,0,0,1-3.58-3.07,34.1,34.1,0,0,1-7.81-11.13,11.21,11.21,0,0,1-.72-1.93c-.19-.57-.34-1-.48-1.42A8,8,0,0,1,335.8,326.65Z" fill="#2f2e41" data-secondary="true"/>
<path d="M402.16,166.28l10.28.77L437,168.89l29.83,2.24,25.79,1.94,8.5.63c1.33.1,2.68.3,4,.31h.15c1.75.13,1.74-2.6,0-2.73L495,170.5l-24.54-1.84-29.81-2.24-25.79-1.94-8.5-.63c-1.32-.1-2.68-.3-4-.31h-.18c-1.76-.13-1.75,2.6,0,2.74Z" fill="#0071f2" data-primary="true"/>
<path d="M433.54,125.18l23,2.19,36.29,3.49,8.37.8c1.75.16,1.74-2.57,0-2.74l-23-2.19-36.29-3.49-8.37-.79c-1.75-.17-1.74,2.57,0,2.73Z" fill="#0071f2" data-primary="true"/>
<path d="M459.32,100.38l40,3.84,5.56.53c1.75.18,1.74-2.57,0-2.73l-40-3.84-5.57-.54C457.57,97.48,457.58,100.21,459.32,100.38Z" fill="#0071f2" data-primary="true"/>
<g opacity="0.1">
<path d="M683.31,220.18c-2.36-2.76-6.79-.47-9.55,1.88-25.16,21.51-50.6,43.08-79,60.18s-60,29.83-93.13,32l-17.5,9.19c14.7,8.75,32.23,12.19,49.33,11.39s33.83-5.65,49.52-12.49a203.18,203.18,0,0,0,99.77-94.61C684,225.29,685,222.22,683.31,220.18Z"/>
</g>
<path d="M485.4,319.4s-9-.06-7.66-4.52c1.1-3.52,33.82-21.11,36.27-22.9s4.38-5.35,8.36-7.28,6.92.12,12.21-2.3S628.9,238,628.9,238s12-6,15.43-8.14,10.3-8.34,12-8.57-1.51,3.1-.4,4.31c0,0,27.18-13.38,30.84-18.8,0,0,1.5-3.55-3-5.63S666.34,187.62,675,177c0,0,1.49-1,2.39,1.44s2,3.7,9.34,5.88,9.19,1.39,10.71,3.76l1.54,2.39s1.3-1.39,4.61-1.59,5.9,2,10.87,3.22,9,1.93,12,1.47,2.94-.45,2.81,1-5.47,6.64-13.2,10.13-16,1.17-19.33,3.88-4.52,6.7-7.92,11.18c-2.92,3.84-38.49,53.72-67.54,75s-80,34.83-90.78,36.67-42.11-.86-46.81-3.78c-.7-.44-2.9-3.84-3.61-4.64Z" fill="#0071f2" data-primary="true"/>
<path d="M485.4,319.4s39.51-19.77,47.3-17.62,6.84,5.47,14.36,3.14,24.85,2.19,42.67-11.1S671,230.3,680.3,222.71l13.13-10.4s-2.91,4.81-7.95,11.78c-10.24,14.15-28.62,37.92-44.62,53.24a151,151,0,0,1-13.13,12.16,134.82,134.82,0,0,1-26.26,17.09,116.34,116.34,0,0,1-10.81,5.31c-21.73,8.39-42.5,16.16-58.6,19.22-8.68,1.65-16.41.37-25.06.36,0,0-7.37-.6-13.52-1.44a48.2,48.2,0,0,1-8-1.64c-2.66-1-2.94-2-5.47-5.4Z" fill="#f5f5f5"/>
<path d="M694.18,211.28l-.44.74c-.31.5-.76,1.21-1.35,2.19-1.2,1.88-3,4.64-5.47,8.1-4.85,7-12.6,16.53-21.88,28.54-2.37,3-4.91,6-7.66,9.12s-5.7,6.25-8.75,9.52-6.14,6.69-9.44,10.11a137.28,137.28,0,0,1-10.8,9.95,130.56,130.56,0,0,1-12.47,9.08c-4.45,2.83-9.13,5.47-13.95,8-2.41,1.27-4.84,2.57-7.32,3.83s-5,2.44-7.66,3.53c-5.2,2.19-10.6,4.14-16.1,6-3.55,1.2-7.1,2.35-10.56,3.59s-7,2.4-10.45,3.38c-7,2-13.87,3.65-20.62,5.09h0a102,102,0,0,1-13.88.17c-4.54-.21-9-.6-13.27-1.1s-8.51-1-12.58-1.68l-3-.54a12.79,12.79,0,0,1-1.51-.37,5.37,5.37,0,0,1-1.36-.77,17,17,0,0,1-3.81-4.59l-.1-.17.17-.11a129.44,129.44,0,0,1,26.46-13.77c4.13-1.64,8-3,11.63-4.29,1.82-.6,3.55-1.24,5.25-1.7a44.88,44.88,0,0,1,4.89-1.09,23.06,23.06,0,0,1,4.47-.37,8.45,8.45,0,0,1,3.76,1.23c2.12,1.24,3.92,2.35,5.61,2.58a9.26,9.26,0,0,0,3.78-.18c.83-.26,1.27-.38,1.27-.38l-1.25.45a9.33,9.33,0,0,1-3.83.23c-1.71-.22-3.55-1.33-5.66-2.54a8.31,8.31,0,0,0-3.68-1.18,23.57,23.57,0,0,0-4.44.39c-1.64.28-3.26.65-4.86,1.09s-3.4,1.1-5.21,1.72c-3.61,1.26-7.49,2.68-11.61,4.32a129.81,129.81,0,0,0-26.35,13.76l.05-.28a16.42,16.42,0,0,0,3.7,4.47,5.31,5.31,0,0,0,1.25.71,14.33,14.33,0,0,0,1.44.34c1,.19,2,.36,3,.52,4.06.66,8.25,1.21,12.55,1.68s8.75.83,13.25,1a101.18,101.18,0,0,0,13.82-.18h0c6.74-1.43,13.63-3.1,20.58-5.08q5.22-1.49,10.42-3.38c3.46-1.27,7-2.4,10.56-3.59,5.47-1.82,10.89-3.73,16.07-5.94,2.59-1.09,5.12-2.29,7.6-3.53s4.9-2.55,7.31-3.82c4.82-2.56,9.49-5.17,13.91-8a126.75,126.75,0,0,0,12.44-9,135.91,135.91,0,0,0,10.78-9.85c3.28-3.4,6.4-6.84,9.45-10.09s6-6.4,8.76-9.48,5.3-6.14,7.66-9.1c9.31-12,17.11-21.48,22-28.44,2.47-3.45,4.3-6.19,5.53-8.05l1.39-2.13Z" fill="#2f2e41" data-secondary="true"/>
<path d="M543.45,299.83a1.88,1.88,0,1,1,.26,2.63,1.86,1.86,0,0,1-.35-2.5" opacity="0.2"/>
<path d="M604,292.68,591.8,285.9l-22.71,12a61.26,61.26,0,0,0,26.75,3.71c1.45-.14,3-.8,4.46-1.09a9.49,9.49,0,0,0,4.69-1.8,3.63,3.63,0,0,0,1-4.53A5.53,5.53,0,0,0,604,292.68Z" fill="#2f2e41" data-secondary="true"/>
<path d="M541.51,325.68a2,2,0,0,1-.46.18l-1.34.43c-1.19.37-2.88.81-5,1.33a66.62,66.62,0,0,1-33.82-.95c-2.11-.59-3.79-1.2-4.94-1.57l-1.32-.49a1.58,1.58,0,0,1-.44-.2,1.75,1.75,0,0,1,.48.1l1.35.39c1.2.36,2.86.86,5,1.4a71.32,71.32,0,0,0,33.65.93c2.13-.45,3.85-.83,5-1.19l1.36-.34A1.68,1.68,0,0,1,541.51,325.68Z" fill="#2f2e41" data-secondary="true"/>
<path d="M545.05,321.6a11.6,11.6,0,0,1-1.73.55c-1.11.32-2.75.73-4.78,1.2a84.85,84.85,0,0,1-16.12,1.79,78.48,78.48,0,0,1-8.94-.44,60.11,60.11,0,0,1-7.17-1.27c-1-.22-1.92-.5-2.72-.73s-1.46-.45-2-.67a11.41,11.41,0,0,1-1.67-.67,10.42,10.42,0,0,1,1.74.48c.55.18,1.2.37,2,.56s1.7.46,2.72.66a69.34,69.34,0,0,0,7.18,1.19,87.6,87.6,0,0,0,8.87.39,95.49,95.49,0,0,0,16-1.72c2-.38,3.69-.72,4.79-1A11,11,0,0,1,545.05,321.6Z" fill="#2f2e41" data-secondary="true"/>
<path d="M548.81,317.21a11.7,11.7,0,0,1-1.66.48c-1.08.27-2.65.61-4.62,1A92,92,0,0,1,527,320a76.62,76.62,0,0,1-15.49-1.52c-1-.19-1.86-.39-2.62-.61s-1.43-.37-2-.55a11.22,11.22,0,0,1-1.63-.57,11.09,11.09,0,0,1,1.69.37c.53.14,1.19.28,2,.45s1.65.36,2.62.53A84.84,84.84,0,0,0,527,319.46a102.34,102.34,0,0,0,15.44-1.2c2-.31,3.58-.58,4.64-.8A11.4,11.4,0,0,1,548.81,317.21Z" fill="#2f2e41" data-secondary="true"/>
<path d="M553.41,313.55a11.4,11.4,0,0,1-1.61.57c-1.09.34-2.58.77-4.49,1.23s-4.21.89-6.78,1.26a78.77,78.77,0,0,1-8.42.74,82.38,82.38,0,0,1-8.46-.19c-2.58-.21-4.91-.49-6.85-.82s-3.49-.66-4.55-.93a10.22,10.22,0,0,1-1.64-.46,10.59,10.59,0,0,1,1.67.28c1.1.2,2.64.48,4.58.76s4.25.54,6.82.71,5.47.23,8.41.14,5.82-.36,8.38-.68,4.86-.75,6.76-1.16,3.46-.78,4.52-1.1A13.22,13.22,0,0,1,553.41,313.55Z" fill="#2f2e41" data-secondary="true"/>
<path d="M553.77,310.37a8.78,8.78,0,0,1-1.41.6c-.92.35-2.26.83-3.94,1.37a44.91,44.91,0,0,1-13.55,2.31c-2.71,0-5.27-.26-7.58-.45l-6.16-.57L517,313.2a8.46,8.46,0,0,1-1.51-.22,9.77,9.77,0,0,1,1.53,0l4.16.26,6.16.46c2.32.17,4.87.41,7.54.41a47.9,47.9,0,0,0,13.44-2.19c1.7-.48,3-.92,4-1.21A8.56,8.56,0,0,1,553.77,310.37Z" fill="#2f2e41" data-secondary="true"/>
<path d="M557.2,307.27a6.66,6.66,0,0,1-1.28.5c-.84.31-2.07.7-3.6,1.1a72.65,72.65,0,0,1-12.22,2.19,70.69,70.69,0,0,1-12.43.06c-1.59-.13-2.86-.28-3.75-.42a7.87,7.87,0,0,1-1.35-.27,6.39,6.39,0,0,1,1.38.07c.88.09,2.18.18,3.75.27a82,82,0,0,0,24.53-2.28c1.54-.39,2.78-.73,3.63-1A6.74,6.74,0,0,1,557.2,307.27Z" fill="#2f2e41" data-secondary="true"/>
<path d="M696.74,193.61a16.72,16.72,0,0,1-4.12,8.61c-.12-.1,1.1-1.85,2.25-4.22S696.56,193.57,696.74,193.61Z" opacity="0.2"/>
<path d="M511.84,350.49A36.1,36.1,0,0,1,572,334.08c8.75-12.74,26.36-18.6,41-13.58" fill="#fff"/>
<path d="M613,320.53h-.23l-.64-.16c-.58-.12-1.4-.43-2.51-.63a35.61,35.61,0,0,0-9.55-.69,37.55,37.55,0,0,0-14,3.64,35.29,35.29,0,0,0-13.83,11.63l-.19.26-.23-.23a36.2,36.2,0,0,0-55.69,6.82,34.91,34.91,0,0,0-2.62,4.9c-.58,1.41-1,2.51-1.25,3.28-.13.35-.22.63-.31.86a.79.79,0,0,1-.12.3l0-.28c.06-.25.14-.53.25-.89a30.07,30.07,0,0,1,1.15-3.35,36.92,36.92,0,0,1,7.07-10.89A35.67,35.67,0,0,1,560,326.16a40.81,40.81,0,0,1,6.63,3.35,38.46,38.46,0,0,1,5.55,4.38h-.42a35.52,35.52,0,0,1,14.08-11.74A37,37,0,0,1,600,318.6a33.13,33.13,0,0,1,9.62.85q1.26.3,2.49.72l.64.21Z" fill="#2f2e41" data-secondary="true"/>
<path d="M369.24,513.07s2.35-45.59,5.61-58.54c2.42-9.63-1.52-15.86-1.52-15.86l10.76-72.42-6.18-2c-3.42,20.71-60.86,49.76-75.67,46.65C283.62,407,227,369.62,227,369.62L219.3,372l23,141.84C236.55,528.55,229,549.23,229,555.37c24.64,5,86.53,19.36,110.72,8.31,2.2-.53,39.77-13.74,39.77-13.74l8.49-8.86Z" fill="#0071f2" data-primary="true"/>
<path d="M343.93,516.88c-.4.79.52,5.81-2,5.3C339.49,522.26,343.41,512.83,343.93,516.88Z" fill="#fff"/>
<path d="M338.25,528.77c.69-4.46,3-4.49,2.47-1.07-.17,2.1,0,1.62-.36,2.84C339,531.71,337.64,531.15,338.25,528.77Z" fill="#fff"/>
<path d="M355.77,522.18c-.3,1.39.41,5.16-1.92,5.11C351.1,527.53,355.37,518.19,355.77,522.18Z" fill="#fff"/>
<path d="M347.21,524c.16-.59.82-5.09,2.23-5.68,1.35.61-.45,7.12-1.13,6.61C347.59,525.24,347,524.86,347.21,524Z" fill="#fff"/>
<path d="M349.14,544.51c.25-.8.41-4.51,1.85-5.23,1.32,1.43.3,5,.27,5.53A1.13,1.13,0,0,1,349.14,544.51Z" fill="#fff"/>
<path d="M344,544.83c.33.89-1,2.06-1.65,1.2-.83-.67-.5-1.55-.37-2.56,1.54-7.45,2.15-1.53,2,1.36Z" fill="#fff"/>
<path d="M354.27,533.13c2.15-5,2,3.8.66,4.15C353.08,537.5,353.62,535.63,354.27,533.13Z" fill="#fff"/>
<path d="M337.41,540.62c.32,1.25-.42,4.5-1.83,2.68a19.15,19.15,0,0,1,.89-5C337.63,537.46,337.36,539.66,337.41,540.62Z" fill="#fff"/>
<path d="M335.93,521.94c-.09,2.52-.52,3.24-1.8,2.29S337.31,515,335.93,521.94Z" fill="#fff"/>
<path d="M344.94,533.28c.14.74-.61,2.57-1.87,1.6-.56-.76.4-4.67,1.14-5.49C345.44,529.13,344.66,532.66,344.94,533.28Z" fill="#fff"/>
<path d="M332.87,533.84c.21-.71.74-4.76,2.08-3.22-.3,1-.11,3.45-.49,4.37C333.65,536.14,332.16,535.22,332.87,533.84Z" fill="#fff"/>
<path d="M358.69,529.29c.21-.71.74-4.76,2.08-3.22-.3,1-.12,3.45-.49,4.37C359.47,531.58,358,530.67,358.69,529.29Z" fill="#fff"/>
<path d="M337.61,549.56c.21-.7.75-4.76,2.08-3.21-.29,1-.11,3.44-.49,4.36C338.39,551.86,336.9,550.94,337.61,549.56Z" fill="#fff"/>
<path d="M350.27,531.66c.2,2.51-2.85,3.05-1.38-1C350,526.18,350.55,529.27,350.27,531.66Z" fill="#fff"/>
<path d="M346.77,550.56c0,.73-.17,2-1.11,1.93-1.52.44.09-4.65.5-5.1C347.38,546.85,346.56,549.45,346.77,550.56Z" fill="#fff"/>
<path d="M267.48,544.48c.68.55,5.78.67,4.77,3.07C271.83,549.92,263.4,544.16,267.48,544.48Z" fill="#fff"/>
<path d="M278,552.47c-4.23-1.59-3.78-3.86-.55-2.64,2,.59,1.6.3,2.71.93C281,552.35,280.17,553.54,278,552.47Z" fill="#fff"/>
<path d="M275.07,534c1.31.58,5.14.65,4.62,2.92C279.36,539.63,271.09,533.55,275.07,534Z" fill="#fff"/>
<path d="M275.11,542.72c-.54-.28-4.82-1.84-5.1-3.34.87-1.2,6.87,1.89,6.24,2.46C276.4,542.6,275.92,543.07,275.11,542.72Z" fill="#fff"/>
<path d="M295.59,545c-.73-.4-4.33-1.32-4.75-2.87,1.67-1,5,.73,5.47.86A1.12,1.12,0,0,1,295.59,545Z" fill="#fff"/>
<path d="M294.85,550.12c.94-.15,1.81,1.4.83,1.86-.81.67-1.61.17-2.57-.16-7-3-1.07-2.41,1.74-1.69Z" fill="#fff"/>
<path d="M285.49,537.67c-4.54-3.15,4.13-1.18,4.2.2C289.53,539.72,287.81,538.81,285.49,537.67Z" fill="#fff"/>
<path d="M289.39,555.7c1.28-.05,4.32,1.34,2.25,2.34a19.07,19.07,0,0,1-4.68-1.88C286.34,554.84,288.43,555.56,289.39,555.7Z" fill="#fff"/>
<path d="M270.79,553.34c2.45.6,3.08,1.17,1.88,2.23S264.24,550.57,270.79,553.34Z" fill="#fff"/>
<path d="M283.74,546.83c.75,0,2.39,1.12,1.19,2.16-.87.4-4.5-1.34-5.15-2.24C279.78,545.5,283.07,547,283.74,546.83Z" fill="#fff"/>
<path d="M281.82,558.77c-2.08-.5-5.63-3.74-.8-2.07.68.25,1.94.38,2.25.75C284.2,558.5,283.09,559.74,281.82,558.77Z" fill="#fff"/>
<path d="M282.63,532.56c-2.09-.49-5.63-3.74-.8-2.06.67.25,1.93.37,2.25.74C285,532.3,283.9,533.53,282.63,532.56Z" fill="#fff"/>
<path d="M298.18,557.33c-2.08-.5-5.63-3.74-.8-2.07.68.25,1.94.38,2.25.75C300.56,557.06,299.45,558.3,298.18,557.33Z" fill="#fff"/>
<path d="M283.24,541.29c.72.11,2,.58,1.66,1.47.13,1.58-4.53-1-4.89-1.52C279.74,539.93,282.11,541.26,283.24,541.29Z" fill="#fff"/>
<path d="M301,548.57c.73.11,2,.58,1.67,1.47.12,1.58-4.54-1-4.89-1.52C297.52,547.21,299.89,548.54,301,548.57Z" fill="#fff"/>
<path d="M219.28,372h0C219.25,371.81,219.24,371.82,219.28,372Z" fill="#0071f2" data-primary="true"/>
<path d="M219.28,372c-.45.34-17.22,13-31.08,53.82C180.11,449.66,177,465.62,177,465.62l57,1.84,5.72-24.28C238.31,439.66,220,375.09,219.28,372Z" fill="#0071f2" data-primary="true"/>
<path d="M239.7,443l0,.15C239.76,443.41,239.77,443.38,239.7,443Z" fill="#0071f2" data-primary="true"/>
<path d="M383.59,365.88c22.27,11.57,39.38,68.75,40.53,86.81L374.38,458l-5.11-22.16Z" fill="#0071f2" data-primary="true"/>
<g opacity="0.3">
<path d="M323,430c-1.33-8.87-10.23-15.35-19.19-15.78-35,1.42-47,53-64.78,77.59l.92,7.54c23.54-14.22,31-59.33,54.79-58.4,4.9.4,10.55,2.92,14.23-.35,1.48-1.32,2.38-3.46,4.29-4C319.17,437.22,323.55,438.46,323,430Z"/>
</g>
<g opacity="0.3">
<path d="M251.65,543c24.12,10.44,60.91,17.66,80.14-4.67,14.71-9.7,31.51,11,46.6,1.39-15.44-6.87-32.2-13.09-47.65-20-3.48-2.17-6.71-.3-8.87,2.79-18.67,20.09-51.1,3.69-71.82,19.62"/>
</g>
<g opacity="0.2">
<path d="M234,436.83c-1.47-18-10.31-38.43-22.44-51.82C224.67,397.37,234,418.83,234,436.83Z" fill="#1a2e35"/>
</g>
<g opacity="0.2">
<path d="M390.14,406.33c-11,25.19-17.88,59-20.4,85.17C370.92,465.39,377.92,430.88,390.14,406.33Z"/>
</g>
<g opacity="0.3">
<path d="M374.17,457.68a36.55,36.55,0,0,0,10.93-38.94,167.08,167.08,0,0,0-11,39.6"/>
</g>
<path d="M229,555.37s-53.05-23.24-68.55-23.75c-13.25-.43-36,5.52-42.54,19.58s-4.52,33.17.06,40.36,52.32,30.15,75.21,39S288.31,659,288.31,659l101.36-6.54s29.87-25.73,34.45-31,35.16-33.93,38.43-38.51,12.15-33,2.34-44.13-16.26-18.14-30.32-17.16-23.72,2.69-41.45,15.64c-13.64,10-19.17,13.78-33,16.94s-41,11.21-63,9.41S229,555.37,229,555.37Z" fill="#2f2e41" data-secondary="true"/>
<g opacity="0.2">
<path d="M179.21,552.31a2.65,2.65,0,0,1,.45.18l1.29.6,4.94,2.41,18.07,9c7.6,3.85,16.66,8.44,26.64,13.67L263,595.37l43.82,23.28.32.17-.16.32-14.46,28.94c-1.73,3.44-3.1,6.16-4.07,8.07l-1.08,2.12a8,8,0,0,1-.39.72,3.5,3.5,0,0,1,.29-.77c.24-.54.57-1.26,1-2.16.93-1.94,2.24-4.69,3.89-8.16,3.44-7.06,8.32-17.07,14.19-29.09l.15.49L262.6,596.12c-11.48-6.1-22.47-11.86-32.36-17.23s-19-9.91-26.56-13.83l-17.94-9.26-4.86-2.55-1.26-.68A2.06,2.06,0,0,1,179.21,552.31Z"/>
</g>
<g opacity="0.2">
<path d="M377.21,557.24a2.38,2.38,0,0,1-.37.28l-1.1.74c-1,.64-2.43,1.57-4.32,2.74-3.78,2.31-9.3,5.63-16.43,9.15a135.52,135.52,0,0,1-26.08,9.9,105.33,105.33,0,0,1-16.25,2.88,119.78,119.78,0,0,1-17.72.26,158.86,158.86,0,0,1-33.64-6,272.11,272.11,0,0,1-26.39-9.06c-7.39-2.92-13.29-5.46-17.36-7.22l-4.68-2.07-1.2-.55c-.27-.13-.41-.2-.4-.22a1.87,1.87,0,0,1,.43.14l1.24.48,4.74,1.91c4.11,1.67,10,4.12,17.45,7s16.28,6.07,26.38,8.87A161.36,161.36,0,0,0,295,582.34a120.8,120.8,0,0,0,17.59-.25,106.27,106.27,0,0,0,16.13-2.8,137.76,137.76,0,0,0,26-9.69c7.15-3.43,12.7-6.66,16.53-8.89l4.4-2.6,1.15-.67A2.13,2.13,0,0,1,377.21,557.24Z"/>
</g>
<g opacity="0.2">
<path d="M305.18,610.85a6.67,6.67,0,0,1-.36-1.65c-.19-1.07-.37-2.62-.51-4.55a111.55,111.55,0,0,1,.11-15.1c.39-5.89.9-11.19,1.2-15a59.12,59.12,0,0,1,.59-6.22,6.7,6.7,0,0,1,.11,1.68c0,1.08,0,2.65-.09,4.58-.15,3.86-.57,9.18-1,15s-.5,11.17-.35,15S305.32,610.83,305.18,610.85Z"/>
</g>
<g opacity="0.2">
<path d="M294.07,577.9c-.1.1-1.36-1.16-3.56-3a51.79,51.79,0,0,0-19.61-10.09c-2.75-.74-4.5-1-4.48-1.17a17.48,17.48,0,0,1,4.63.59,43.61,43.61,0,0,1,19.86,10.21A17.52,17.52,0,0,1,294.07,577.9Z"/>
</g>
<g opacity="0.2">
<path d="M355.09,558.75a56.13,56.13,0,0,1-5.37,2,117,117,0,0,0-12.61,5.39A114.57,114.57,0,0,0,325.27,573c-2.92,2-4.67,3.25-4.76,3.15s.36-.43,1.11-1.07,1.88-1.53,3.3-2.58a86.45,86.45,0,0,1,11.81-7.19,85,85,0,0,1,12.8-5.2c1.69-.53,3.07-.9,4-1.12A5.75,5.75,0,0,1,355.09,558.75Z"/>
</g>
<g opacity="0.2">
<path d="M415.64,532.13a11,11,0,0,1-1.21.81l-3.56,2.19c-1.56.91-3.43,2.11-5.58,3.52s-4.62,3-7.28,4.83c-5.38,3.61-11.61,8.17-18.5,13.25s-14.32,10.88-22.14,16.94-15.31,11.79-22.17,16.93-13.16,9.63-18.56,13.22c-2.68,1.84-5.15,3.42-7.33,4.79s-4.05,2.57-5.63,3.46l-3.62,2.09a9.4,9.4,0,0,1-1.29.67A9.21,9.21,0,0,1,300,614l3.53-2.22c1.56-.94,3.41-2.15,5.55-3.58s4.6-3,7.24-4.89c5.36-3.65,11.56-8.24,18.43-13.35s14.3-10.92,22.12-17,15.32-11.78,22.2-16.89,13.2-9.57,18.63-13.12c2.69-1.82,5.17-3.38,7.37-4.73s4.07-2.53,5.66-3.41l3.64-2.05A8.21,8.21,0,0,1,415.64,532.13Z"/>
</g>
<g opacity="0.2">
<path d="M282.14,656.2a6.77,6.77,0,0,1,.21-1.74c.18-1.11.51-2.7,1-4.66a122.73,122.73,0,0,1,10.9-29.36c.94-1.78,1.74-3.2,2.32-4.16a6.43,6.43,0,0,1,1-1.45c.11.07-1,2.27-2.75,5.88s-4,8.65-6.13,14.36-3.69,11-4.74,14.88S282.27,656.22,282.14,656.2Z"/>
</g>
<path d="M197.14,631.32c-4,0-9,3.08-11.53,6.15s-4.1,6.82-5.6,10.52c-1.17,2.89-2.32,6.15-1.16,9,1.1,2.74,4.06,4.36,7,4.75s5.89-.22,8.8-.71c30.43-5.12,61.86,2.37,92.37-2.23Z" fill="#0071f2" data-primary="true"/>
<path d="M197,660.58c0-.05.45-.58,1.09-1.68a10.91,10.91,0,0,0,1.49-5.09,10.39,10.39,0,0,0-2.63-7.2,8.89,8.89,0,0,0-3.72-2.58,4.84,4.84,0,0,0-4.53.5,2.91,2.91,0,0,0-1.07,3.93,2.87,2.87,0,0,0,1.65,1.27,2.11,2.11,0,0,0,1.87-.41,3.93,3.93,0,0,0,1.24-3.58,15.67,15.67,0,0,0-.9-3.57,24.3,24.3,0,0,0-3.81-6.32,6.3,6.3,0,0,1,1.48,1.39A16.77,16.77,0,0,1,192,642a14.81,14.81,0,0,1,1,3.72,4.59,4.59,0,0,1-1.46,4.27,2.92,2.92,0,0,1-2.55.58,3.63,3.63,0,0,1-2.16-1.62,3.33,3.33,0,0,1-.4-2.77,4.41,4.41,0,0,1,1.68-2.3,5.7,5.7,0,0,1,5.3-.6,9.69,9.69,0,0,1,4.05,2.86,10.83,10.83,0,0,1,2.63,7.75,10.5,10.5,0,0,1-1.81,5.24A4.93,4.93,0,0,1,197,660.58Z" fill="#fff"/>
<path d="M217.79,637.28a8.58,8.58,0,0,1,1.75,3.42,16,16,0,0,1-4.86,17.09,8.43,8.43,0,0,1-3.29,2c-.08-.12,1.21-.83,2.88-2.43A16.74,16.74,0,0,0,219,640.87C218.39,638.63,217.66,637.35,217.79,637.28Z" fill="#fff"/>
<path d="M234.72,642.55c0,.07-.43.38-1.09,1.12a7.5,7.5,0,0,0-1.74,3.72,6.15,6.15,0,0,0,1.63,5.53,2.78,2.78,0,0,0,3,.7,2.86,2.86,0,0,0,1.55-2.89,3.34,3.34,0,0,0-2.27-2.53,3.91,3.91,0,0,0-3.27.44,5.72,5.72,0,0,0-2.5,5.14,10,10,0,0,0,1.08,4,10,10,0,0,1,.69,1.42c-.05,0-.44-.38-1-1.26a9.34,9.34,0,0,1-1.39-4.14,7.16,7.16,0,0,1,.43-3.06,5.64,5.64,0,0,1,2.26-2.78,4.66,4.66,0,0,1,4-.57,4.14,4.14,0,0,1,2.84,3.21,3.66,3.66,0,0,1-2,3.77,3.55,3.55,0,0,1-3.89-.88,6.74,6.74,0,0,1-1.7-6.23,7.41,7.41,0,0,1,2.1-3.83A3.36,3.36,0,0,1,234.72,642.55Z" fill="#fff"/>
<path d="M252.11,660.58c-.08-.11.49-.58,1.21-1.47a9,9,0,0,0,1.88-3.93,8.54,8.54,0,0,0-.36-4.32c-.38-1.08-.78-1.7-.67-1.78s.66.44,1.22,1.54a7.52,7.52,0,0,1,.65,4.72,7.93,7.93,0,0,1-2.27,4.18C252.87,660.37,252.17,660.66,252.11,660.58Z" fill="#fff"/>
<path d="M293.2,214c-13.77-10.17-28.42,3.1-39.18,12.13a46.49,46.49,0,0,0-16.3,37.27c.44,9,3.37,18.62-1,26.49-2.63,4.79-7.47,7.85-11.77,11.23s-8.5,7.78-8.8,13.24c-.26,4.83,2.61,9.33,3,14.16.54,7.46-6.08,14.67-13.56,14.76a18.84,18.84,0,0,0,30.25.18c.11,3.46.23,6.93.35,10.39a16.19,16.19,0,0,0,15.65-2.4c-.24,3.18,2,6.16,4.76,7.72s6,2,9.23,2.24A145.46,145.46,0,0,0,313.46,357c6.33-1.6,13-3.86,16.9-9.1,7.28-9.79,1.8-25.53,10-34.57,4-4.43,10.42-6,14.52-10.39,5.51-5.84,5.45-14.87,4.77-22.87-1-12.07-2.74-24.24-7.37-35.43S339.81,223.24,329,217.76s-28-8.94-37.71-1.67" fill="#2f2e41" data-secondary="true"/>
<path d="M274,354.89l-47,14.73s51.18,71.59,74.63,64.84,79.11-69.16,79.11-69.16l-49.88-13.11Z" fill="#f9b499"/>
<path d="M330.48,316.59c7.65-7.28,17.2-24.4,18.65-34.86s.45-21.1-.84-31.58C347,240,342.91,232.92,335.48,225.9a42.89,42.89,0,0,0-25.37-11.3c-12.19-.89-22.67-1.59-34.15,2.6s-21.88,12.38-26.71,23.61c-4,9.19-3.95,19.56-3.17,29.54.92,11.75,3,24,10.34,33.26" fill="#0071f2" data-primary="true"/>
<g opacity="0.3">
<path d="M333.81,310.12A72.81,72.81,0,0,0,344,253.51c-2.07-8.65-5.85-17-12.05-23.42s-15-10.5-23.87-9.86c0,0,25.1,9.25,30.23,32.29s2.31,40.24-.66,48.51S333.81,310.12,333.81,310.12Z"/>
</g>
<rect x="273.65" y="312.69" width="56.47" height="56.47" fill="#f9b499"/>
<path d="M273.65,355.34V337.4l49.18-1.87S316,358.51,273.65,355.34Z" fill="#f7a48b"/>
<rect x="247.51" y="225.9" width="88.01" height="122.23" rx="40.22" fill="#f9b499"/>
<path d="M347,307.58a7.83,7.83,0,0,0-9.67-1.49c-2.92,1.81-4.22,5.41-4.55,8.83.47,3.51,2,4.92,5.37,5.87a8.8,8.8,0,0,0,9.39-3.34A8.31,8.31,0,0,0,347,307.58Z" fill="#0071f2" data-primary="true"/>
<path d="M339.71,304.25c.21.08-.71,2.93-2.77,6s-4.36,5-4.51,4.79,1.81-2.31,3.8-5.27S339.48,304.16,339.71,304.25Z" fill="#2f2e41" data-secondary="true"/>
<path d="M348.56,315.39c-.13.05-.45-.71-1.22-1.73a9.5,9.5,0,0,0-3.84-3,9.61,9.61,0,0,0-4.84-.59,15.07,15.07,0,0,1-2.09.36c0-.09.64-.61,2-.95a8.45,8.45,0,0,1,9.3,3.85C348.54,314.51,348.66,315.36,348.56,315.39Z" fill="#2f2e41" data-secondary="true"/>
<path d="M342.5,309.75c.18-.12,1.4,2.55.74,5.94s-2.7,5.46-2.83,5.28,1.43-2.28,2-5.43S342.25,309.82,342.5,309.75Z" fill="#2f2e41" data-secondary="true"/>
<path d="M348.68,314.84c.1,0,0,.9-.73,2.11a9,9,0,0,1-9.39,4.32c-1.38-.26-2.12-.73-2.08-.82a14,14,0,0,1,2.16.22,9.81,9.81,0,0,0,8.81-4.05C348.23,315.57,348.56,314.79,348.68,314.84Z" fill="#2f2e41" data-secondary="true"/>
<path d="M285.7,229.74c16-8.6,22.86-.64,36.5,3.61,0,0,15.37,4.43,17.94,20,2.15,13,.11,19.52,1.84,32.55.76,5.72-3.6,12.77-5.48,18.23-3.15,9.16-8.42,13-18.09,12.44a19.7,19.7,0,0,0,6.1-10.47,13.76,13.76,0,0,0-2.86-11.55c-2-2.33-4.93-3.76-7.1-6a13.93,13.93,0,0,1-2.62-15.16c1.85-4,5.79-7.91,4.42-12.13s-6.47-5-10.55-6.34c-10.23-3.26-19.58-14.45-20.1-25.17" fill="#2f2e41" data-secondary="true"/>
<path d="M286.94,229.64a60.67,60.67,0,0,1-33.19,22.88c4.12-11.69,10.83-20.93,22.84-24,1.57-.39,8.48-.41,10.35,1.09" fill="#2f2e41" data-secondary="true"/>
<path d="M319,224.83c-11.07-6.7-25.07-7-37.64-3.89-6.85,1.68-13.6,4.38-18.91,9-6.17,5.39-13.32,15.07-14.95,23.09s-1.39,18.83,0,26.9l1.48-4.48a86,86,0,0,0,3.52-14.4c.42-2.78,1.43-5.45,3.72-11.88,2.69-7.56,7.66-11.73,15.17-14.57,10.54-4,22.56-1.69,32.7,3.2s18.9,12.18,28,18.76c1.2.87,3.07,1.64,4,.45.36-.48,4.14-2.51,4.14-3.11C340.07,241.69,329.47,231.15,319,224.83Z" fill="#2f2e41" data-secondary="true"/>
<g opacity="0.2">
<path d="M339,266.71c-.08,0-.46-.83-1.52-2.16a16.4,16.4,0,0,0-5.61-4.33,32.73,32.73,0,0,0-10.21-2.84c-4-.6-8.48-.91-13-2.41a36.37,36.37,0,0,1-11.59-6.42,37.1,37.1,0,0,1-7.24-8,33.62,33.62,0,0,1-3.35-6.47c-.32-.8-.49-1.45-.63-1.88a2.31,2.31,0,0,1-.15-.68c.19-.08,1.16,3.67,4.63,8.68a38,38,0,0,0,7.24,7.77,36.56,36.56,0,0,0,11.36,6.22c4.38,1.46,8.84,1.79,12.85,2.44a32.2,32.2,0,0,1,10.37,3.08,15.84,15.84,0,0,1,5.6,4.67,10.77,10.77,0,0,1,1,1.71C338.94,266.48,339,266.7,339,266.71Z" fill="#231f20"/>
</g>
<g opacity="0.2">
<path d="M328.73,232.88a6.83,6.83,0,0,1-1.63.79c-1.08.45-2.64,1.07-4.6,1.78a58,58,0,0,1-15.86,3.69,29.05,29.05,0,0,1-15.88-3.31,19.32,19.32,0,0,1-4-3,6,6,0,0,1-1.18-1.38,33.58,33.58,0,0,0,5.46,3.8,29.91,29.91,0,0,0,15.54,3,65.26,65.26,0,0,0,15.72-3.4l4.67-1.53A8.18,8.18,0,0,1,328.73,232.88Z" fill="#231f20"/>
</g>
<g opacity="0.2">
<path d="M273.22,224.33c.13,0,.3.79.86,2a9.9,9.9,0,0,0,7.71,5.69,14,14,0,0,1,2.13.25c0,.1-.79.39-2.18.36a9.1,9.1,0,0,1-5.05-1.77,9.21,9.21,0,0,1-3.17-4.3C273.08,225.2,273.12,224.34,273.22,224.33Z" fill="#231f20"/>
</g>
<path d="M256.32,234.52a1.37,1.37,0,0,1,0-.38,4,4,0,0,1,.27-1.11,10.4,10.4,0,0,1,2.44-3.62c2.66-2.75,7.3-5.8,13.4-8.74,3-1.61,6.71-2.44,10.6-3.24,1-.19,2-.36,3-.46s2.07-.12,3.14-.17c2.11-.09,4.3-.14,6.53-.13s4.54.07,6.87.19a64,64,0,0,1,7.17.67A44.76,44.76,0,0,1,324,222.6,42.84,42.84,0,0,1,335.83,232a29.06,29.06,0,0,1,2.14,3c.64,1,1.15,2.1,1.7,3.14a58.76,58.76,0,0,1,2.74,6.33,66.73,66.73,0,0,1,4,23.38,72.57,72.57,0,0,1-1.81,15.9c-.41,1.85-.81,3.27-1.11,4.22l-.33,1.08a1.76,1.76,0,0,1-.14.36s0-.14.05-.39.16-.66.26-1.1c.24-1,.58-2.39.94-4.24a77.44,77.44,0,0,0,1.54-15.83,67.27,67.27,0,0,0-4.13-23.1,59.39,59.39,0,0,0-2.73-6.24c-.55-1-1.06-2.08-1.68-3.07a26.27,26.27,0,0,0-2.08-2.88,42.13,42.13,0,0,0-11.58-9.22,44.2,44.2,0,0,0-14-5,63.29,63.29,0,0,0-7.07-.68q-3.49-.19-6.83-.22c-2.23,0-4.4,0-6.5.09a34.82,34.82,0,0,0-6.07.58c-3.87.76-7.5,1.54-10.47,3.09-6.09,2.85-10.74,5.8-13.42,8.43a10.66,10.66,0,0,0-2.52,3.44,4.43,4.43,0,0,0-.34,1.06A1.62,1.62,0,0,1,256.32,234.52Z" fill="#2f2e41" data-secondary="true"/>
<path d="M419.69,636.93c-4.82-6.62-14.11-8-22.28-7.56a80.17,80.17,0,0,0-19.06,3.37c-3.23,1-6.58,2.19-9.91,1.58-2.91-.54-5.39-2.42-8.23-3.24-5.17-1.51-10.59.61-15.89,1.52-13.55,2.34-27.07-3.27-39.69-8.75l-15,29.23c14.4,6.38,27.15,9.27,42.29,13,13.43,3.27,27.48,2.14,41.29,2.63,7.9.28,15.84,1.1,23.68.14s15.79-3.95,20.91-10S424.34,643.32,419.69,636.93Z" fill="#0071f2" data-primary="true"/>
<path d="M306.12,659.18a1.74,1.74,0,0,1-.28-.49,11.91,11.91,0,0,1-.58-1.51,16.91,16.91,0,0,1-.73-5.92,17.4,17.4,0,0,1,2.67-8.43,9.82,9.82,0,0,1,3.86-3.66,5.67,5.67,0,0,1,5.74.25,3,3,0,0,1,1.19,2.9,1.88,1.88,0,0,1-1.14,1.28,3.17,3.17,0,0,1-1.54.16,10.08,10.08,0,0,1-8.56-10.12,10.12,10.12,0,0,1,2-5.63,8,8,0,0,1,1.1-1.19c.29-.24.44-.35.46-.33s-.54.56-1.29,1.71a10.29,10.29,0,0,0-1.63,5.45,9.46,9.46,0,0,0,8,9.28c.81.11,1.61-.15,1.77-.82a2.28,2.28,0,0,0-.91-2,4.91,4.91,0,0,0-4.84-.16,9.31,9.31,0,0,0-3.56,3.34,17.33,17.33,0,0,0-2.72,8C304.78,656.25,306.33,659.14,306.12,659.18Z" fill="#fff"/>
<path d="M329.84,664c0-.07.54-.07,1.45-.31a7.86,7.86,0,0,0,3.39-1.94,8.73,8.73,0,0,0,2.59-5.06,13.3,13.3,0,0,0-1-7,26.26,26.26,0,0,0-3.8-6.17A25.23,25.23,0,0,1,329,638.6a5.69,5.69,0,0,1-.33-4.13c.34-1,.81-1.3.83-1.27s-.29.46-.51,1.36a5.63,5.63,0,0,0,.56,3.78,27,27,0,0,0,3.62,4.71,25.39,25.39,0,0,1,4,6.34,13.63,13.63,0,0,1,.94,7.46,9.06,9.06,0,0,1-3,5.38,7.53,7.53,0,0,1-3.72,1.82A3.12,3.12,0,0,1,329.84,664Z" fill="#fff"/>
<path d="M369,634.34a2.46,2.46,0,0,1,.3.69,21.41,21.41,0,0,1,.57,2.08,26.43,26.43,0,0,1,.55,7.88,20,20,0,0,1-1.1,5.4,9.55,9.55,0,0,1-4,5,9.09,9.09,0,0,1-7,.91,7.6,7.6,0,0,1-3.32-1.89,4.62,4.62,0,0,1-1.41-3.73,3.42,3.42,0,0,1,2.59-3,4.37,4.37,0,0,1,3.79.89,7.75,7.75,0,0,1,2.52,6.55,12.7,12.7,0,0,1-6.39,9.63,25.51,25.51,0,0,1-7.39,2.82c-.91.22-1.62.35-2.1.43a2.48,2.48,0,0,1-.75.08,26,26,0,0,1,2.77-.83,28,28,0,0,0,7.15-3,13.42,13.42,0,0,0,3.86-3.59,11.13,11.13,0,0,0,2.07-5.57,7,7,0,0,0-2.26-5.84,3.5,3.5,0,0,0-3.06-.72,2.54,2.54,0,0,0-2,2.31,3.72,3.72,0,0,0,1.17,3,6.78,6.78,0,0,0,2.94,1.68,8.37,8.37,0,0,0,6.35-.78,8.9,8.9,0,0,0,3.69-4.56,19.47,19.47,0,0,0,1.17-5.19,28.71,28.71,0,0,0-.28-7.77C369.25,635.35,369,634.36,369,634.34Z" fill="#fff"/>
<path d="M383,668.16a2.74,2.74,0,0,1-.61-.46,14.13,14.13,0,0,1-1.54-1.59,17.48,17.48,0,0,1-3.52-7.31A17,17,0,0,1,379.08,647a17.94,17.94,0,0,1,4.65-5.47,11.23,11.23,0,0,1,7.24-2.72c2.8.08,5.41,2.58,5.06,5.42a3.89,3.89,0,0,1-2.43,3,5.47,5.47,0,0,1-3.67.18,6.12,6.12,0,0,1-3.9-5.16,8.85,8.85,0,0,1,1.09-5.59,15,15,0,0,1,6.08-5.35,21.59,21.59,0,0,1,2-.94,2.46,2.46,0,0,1,.72-.25c0,.06-.92.52-2.55,1.48a15.46,15.46,0,0,0-5.73,5.36,8.35,8.35,0,0,0-.91,5.19,5.41,5.41,0,0,0,3.44,4.51,4.67,4.67,0,0,0,3.1-.18,3.07,3.07,0,0,0,1.93-2.36c.29-2.18-1.88-4.41-4.28-4.45a10.48,10.48,0,0,0-6.67,2.53,17.21,17.21,0,0,0-4.48,5.2,16.6,16.6,0,0,0-1.85,11.33,18.17,18.17,0,0,0,3.19,7.22C382.25,667.41,383.06,668.1,383,668.16Z" fill="#fff"/>
<path d="M410.35,631.27a5.4,5.4,0,0,1,.84,1.48,24.64,24.64,0,0,1,1.54,4.36,28.54,28.54,0,0,1-8.24,28.11,24.94,24.94,0,0,1-3.66,2.84,6.25,6.25,0,0,1-1.5.8c-.1-.14,2-1.35,4.74-4.07a29.62,29.62,0,0,0,8.08-27.54C411.32,633.49,410.2,631.33,410.35,631.27Z" fill="#fff"/>
<path d="M182.13,465.62s-7.45,28-8.57,33.2-8.06,25.79-3.57,34.77l35.54,12.06s9-6.42,19.31-25.12S273.91,443,273.91,443l-23.08-13.16-32.7,37.09Z" fill="#f9b499"/>
<path d="M281.07,358.49l38.74,71.11,5.55,3.51V426l-38-70.93a3.59,3.59,0,0,0-4.81-1.5h0A3.59,3.59,0,0,0,281.07,358.49Z" fill="#2f2e41" data-secondary="true"/>
<path d="M284.61,397.42l-33.78,32.42,15.57,16.74s10-3.69,14.69-9.15S290.85,425,290.85,425l8.58.78s-6.71.25-6.22,3.38S307,432.54,307,432.54s2.34-.27,2.6-3.39c0,0,4.16-2.6,4.68-5.46a8.49,8.49,0,0,0-.32-4.7l.37-6.94,6.72,7.48s2.6-2.08,1.56-4.42-10.93-17.69-10.93-17.69Z" fill="#f9b499"/>
<path d="M309.86,429.17a40,40,0,0,1-1.43-4.08,16.17,16.17,0,0,0-2.12-4,10,10,0,0,0-4.38-3.26,30.61,30.61,0,0,0-10.07-1.95,25.69,25.69,0,0,1-4.32-.33,18.66,18.66,0,0,1,4.34-.27A27.09,27.09,0,0,1,302.26,417a10.4,10.4,0,0,1,4.68,3.58A14.9,14.9,0,0,1,309,424.9,14.53,14.53,0,0,1,309.86,429.17Z" fill="#f7a48b"/>
<path d="M314.32,420.58c-.16,0-.39-1.59-1.55-3.85a11,11,0,0,0-2.8-3.37,15,15,0,0,0-4.78-2.51,48.2,48.2,0,0,0-5.35-1.35l-4.45-1a20.64,20.64,0,0,1-4.06-1.1,20.4,20.4,0,0,1,4.17.51l4.49.79a38.16,38.16,0,0,1,5.48,1.31,14.76,14.76,0,0,1,5,2.72,10.88,10.88,0,0,1,2.84,3.7,12.53,12.53,0,0,1,.93,3A2.64,2.64,0,0,1,314.32,420.58Z" fill="#f7a48b"/>
<path d="M314.28,412.5a16,16,0,0,0-1.35-3c-1.09-1.7-3.52-3.36-6.48-4.34a24.88,24.88,0,0,0-4.33-.92l-3.63-.61a13.74,13.74,0,0,1-3.32-.77,13.62,13.62,0,0,1,3.41.17l3.65.42a22.87,22.87,0,0,1,4.49.9c3.1,1,5.66,2.88,6.72,4.83S314.35,412.52,314.28,412.5Z" fill="#f7a48b"/>
<path d="M250.83,429.84a5.21,5.21,0,0,1,.59-.64l1.76-1.77,6.79-6.66,24.38-23.62.11-.1h.15l27.05-.05h.23l.12.19,5.66,8.88c.94,1.53,1.9,3.07,2.86,4.62.47.79,1,1.57,1.42,2.37a9.8,9.8,0,0,1,1.25,2.62,3.6,3.6,0,0,1-.43,2.38,6.28,6.28,0,0,1-1.48,1.8l-.31.27-.27-.31L314,412.33l.74-.26q-.15,3.8-.3,7.47l-.05-.22a6.46,6.46,0,0,1,.44,3.14,6.2,6.2,0,0,1-.82,3,13.74,13.74,0,0,1-4.22,4.07l.19-.31a4.9,4.9,0,0,1-.8,2.38,3.4,3.4,0,0,1-2.16,1.37h0c-2.07-.06-4.08-.21-6.05-.45a26.11,26.11,0,0,1-5.73-1.24,6,6,0,0,1-1.32-.66,2.22,2.22,0,0,1-1-1.28,2.48,2.48,0,0,1,1.35-2.61,12.39,12.39,0,0,1,5.18-1.25l0,.66-8.58-.82.27-.11c-2.43,3.27-4.69,6.16-6.72,8.65a49.62,49.62,0,0,1-5.52,6.12,14.32,14.32,0,0,1-4.42,2.71,6.48,6.48,0,0,1-1.31.33c-.3,0-.46,0-.46,0l.45-.1a8.75,8.75,0,0,0,1.26-.41,14.73,14.73,0,0,0,4.27-2.79,53.61,53.61,0,0,0,5.37-6.17c2-2.51,4.21-5.43,6.6-8.71l.1-.13h.17l8.58.74v.66a11.68,11.68,0,0,0-4.85,1.19,1.77,1.77,0,0,0-1,1.85c.17.64,1.06,1.12,1.88,1.42,3.46,1.18,7.48,1.42,11.53,1.58h-.06a2.68,2.68,0,0,0,1.6-1.06,4.08,4.08,0,0,0,.65-2v-.2l.18-.11a13.22,13.22,0,0,0,3.94-3.8,5.52,5.52,0,0,0,.7-2.61,6,6,0,0,0-.34-2.67l-.06-.12v-.1c.09-2.45.19-4.95.28-7.48l0-1,.7.78,6.71,7.47-.58,0c1-.85,1.84-2.14,1.6-3.37a9.53,9.53,0,0,0-1.15-2.34l-1.41-2.36-2.85-4.6-5.64-8.89.35.2-27.05,0,.25-.11-24.59,23.4-6.93,6.51-1.84,1.69A5.37,5.37,0,0,1,250.83,429.84Z" fill="#f7a48b"/>
<path d="M302.24,404c.14.2-.81,1.08-1.5,2.44s-.88,2.62-1.13,2.62-.45-1.45.37-3S302.13,403.76,302.24,404Z" fill="#e1e1e1"/>
<path d="M305.84,405.88a2.31,2.31,0,0,0-.77-1.11,10.18,10.18,0,0,0-5-1.65l.12,0a10.8,10.8,0,0,0-2.05,0c-.59.05-1.29.25-1.45.83a1.07,1.07,0,0,0,.29.95,3,3,0,0,0,.87.56,18.09,18.09,0,0,0,6.74,1.72,1.49,1.49,0,0,0,.81-.11A1.05,1.05,0,0,0,305.84,405.88Z" fill="#0071f2" data-primary="true"/>
<path d="M293.44,415.49c-.22.06-.58-2,.5-4.15s2.88-3.14,3-2.94-1.26,1.36-2.2,3.32S293.69,415.49,293.44,415.49Z" fill="#e1e1e1"/>
<path d="M222.11,462.41a12.33,12.33,0,0,1-1.65,1.95c-1.11,1.21-2.76,2.92-4.88,4.95s-4.72,4.38-7.78,6.79a119.81,119.81,0,0,1-10.51,7,89.74,89.74,0,0,0-10.2,7.29,41.3,41.3,0,0,0-6.92,7.47,30,30,0,0,0-3.32,6,24.08,24.08,0,0,1-.93,2.37,2.4,2.4,0,0,1,.1-.65,16.86,16.86,0,0,1,.51-1.83,26.87,26.87,0,0,1,3.14-6.24,39.25,39.25,0,0,1,6.9-7.72,83,83,0,0,1,10.26-7.42c3.77-2.42,7.46-4.53,10.48-6.92s5.68-4.66,7.85-6.61,3.88-3.61,5.07-4.74A16.65,16.65,0,0,1,222.11,462.41Z" fill="#f7a48b"/>
<path d="M337.86,465.31a2.62,2.62,0,0,0,1.88-.89,3.19,3.19,0,0,0,.81-2.36,3.06,3.06,0,0,0-2.15-2.49,4.14,4.14,0,0,0-4.08.75,5.92,5.92,0,0,0-1.54,2,7.17,7.17,0,0,0-.47,1.25c-.12.43-.25.91-.06,1.19a1,1,0,0,0,1.08.28,2.16,2.16,0,0,0,1.1-.76,3.07,3.07,0,0,0,.43-2.8c-.69-2-3.44-2.82-5.53-1.82a7.59,7.59,0,0,0-2.79,2.21,3.21,3.21,0,0,0-.7,1.58,1,1,0,0,0,.76,1.14,2,2,0,0,0,1.56-.54,2.52,2.52,0,0,0,.71-1.61,3.78,3.78,0,0,0-1.64-3.31,4.8,4.8,0,0,0-3.92-.5,4.59,4.59,0,0,0-3.16,2.52,2.29,2.29,0,0,0-.09,1.91,1.61,1.61,0,0,0,1.55.88,2.12,2.12,0,0,0,1.9-2.92,3.32,3.32,0,0,0-3.45-2.17,6.58,6.58,0,0,0-4.19,2,10.17,10.17,0,0,0-1.63,1.8,2.32,2.32,0,0,0-.46,2,1.18,1.18,0,0,0,1.67.42,1.89,1.89,0,0,0,1-1.8,5.1,5.1,0,0,0-2.46-4,5.23,5.23,0,0,0-4.79-.39,5.11,5.11,0,0,0-2,1.46,2.92,2.92,0,0,0-.73,2.2c.17,1.58,2.75,1.9,3.59.58a3.06,3.06,0,0,0-1.07-4.23,5.56,5.56,0,0,0-4.91-.26,12.79,12.79,0,0,0-2.34,1.17,5.63,5.63,0,0,0-1.85,1.66,2,2,0,0,0-.14,2.11,1.14,1.14,0,0,0,1.65.53,1.83,1.83,0,0,0,.84-1.84,4,4,0,0,0-.95-2.12,4.75,4.75,0,0,0-7.86.73,2.46,2.46,0,0,0-.13,2,1.45,1.45,0,0,0,1.62.76,2,2,0,0,0,1.56-1.13,2.64,2.64,0,0,0,0-2,4.31,4.31,0,0,0-3.33-2.42,9,9,0,0,0-4.28.13,3.66,3.66,0,0,0-2.74,2.62,2.72,2.72,0,0,0,1.51,3.08,2.28,2.28,0,0,0,2.65-1.78,3.76,3.76,0,0,0-1-3.31,5.77,5.77,0,0,0-3-1.8,6.87,6.87,0,0,0-6.23,1.54,5.07,5.07,0,0,0-1.52,2.58,2.47,2.47,0,0,0,.8,2.48,1.68,1.68,0,0,0,2.26-.07,2.41,2.41,0,0,0,.77-2.16,4.73,4.73,0,0,0-2.51-3.38,5.1,5.1,0,0,0-3.42-.52,5.31,5.31,0,0,0-2.32,1.14,6.94,6.94,0,0,0-1.38,1.66,2.45,2.45,0,0,1,.23-.51,5,5,0,0,1,1-1.29,5.39,5.39,0,0,1,2.37-1.24,5.24,5.24,0,0,1,3.63.47,5,5,0,0,1,2.76,3.61,2.82,2.82,0,0,1-.87,2.55A2.15,2.15,0,0,1,279,464a3,3,0,0,1-1-2.94,5.56,5.56,0,0,1,1.66-2.88,7.42,7.42,0,0,1,6.74-1.74,6.47,6.47,0,0,1,3.34,2,4.36,4.36,0,0,1,1.13,3.91,3.35,3.35,0,0,1-1.23,1.82,2.56,2.56,0,0,1-2.25.44,2.84,2.84,0,0,1-1.7-1.57,3.94,3.94,0,0,1-.31-2.3,4.37,4.37,0,0,1,3.22-3.19,9.54,9.54,0,0,1,4.66-.16,5,5,0,0,1,3.88,2.86,3.37,3.37,0,0,1,0,2.61,2.76,2.76,0,0,1-2.15,1.6,2.26,2.26,0,0,1-2.46-1.19,3.21,3.21,0,0,1,.13-2.73,5.53,5.53,0,0,1,4.31-2.93,5.63,5.63,0,0,1,4.91,2,4.86,4.86,0,0,1,1.14,2.57,2.68,2.68,0,0,1-1.25,2.65,2,2,0,0,1-1.61.19,2.12,2.12,0,0,1-1.21-1.06,2.89,2.89,0,0,1,.18-3,6.42,6.42,0,0,1,2.11-1.92,13,13,0,0,1,2.5-1.25,6.39,6.39,0,0,1,5.66.34,3.92,3.92,0,0,1,1.31,5.45,3,3,0,0,1-2.86,1.15,2.72,2.72,0,0,1-1.48-.65,2.41,2.41,0,0,1-.79-1.43,3.77,3.77,0,0,1,.9-2.89,6,6,0,0,1,2.37-1.71,6.08,6.08,0,0,1,5.56.47,5.86,5.86,0,0,1,2.84,4.72,2.72,2.72,0,0,1-1.42,2.55,2.29,2.29,0,0,1-1.55.2,1.82,1.82,0,0,1-1.24-1,3.06,3.06,0,0,1,.51-2.82,11.65,11.65,0,0,1,1.78-2A7.47,7.47,0,0,1,320,458a4.68,4.68,0,0,1,2.58.64,3.94,3.94,0,0,1,1.65,2.1,3.08,3.08,0,0,1-.3,2.65,3,3,0,0,1-2.31,1.28,2.38,2.38,0,0,1-2.28-1.31,3.08,3.08,0,0,1,.09-2.56,5.34,5.34,0,0,1,3.66-2.92,5.54,5.54,0,0,1,4.51.62,4.48,4.48,0,0,1,1.92,3.95,2.8,2.8,0,0,1-3.09,2.74,1.69,1.69,0,0,1-1.27-1.84,3.73,3.73,0,0,1,.86-1.91,8,8,0,0,1,3.05-2.38c2.33-1.08,5.45-.16,6.28,2.21a3.62,3.62,0,0,1-.55,3.29,2.6,2.6,0,0,1-1.39.92,1.46,1.46,0,0,1-1.59-.5,2,2,0,0,1,0-1.58,8.08,8.08,0,0,1,.53-1.32,6.24,6.24,0,0,1,1.67-2.08,4.5,4.5,0,0,1,4.46-.74A3.33,3.33,0,0,1,340.8,462a3.38,3.38,0,0,1-.93,2.51A2.17,2.17,0,0,1,337.86,465.31Z" fill="#2b2e30"/>
<polygon points="272.33 460.8 250.84 542.07 319.2 544.22 340.7 463.96 272.33 460.8" fill="#3f4347"/>
<polygon points="272.33 460.8 269.6 461.06 247.91 536.12 251.21 540.65 272.33 460.8" fill="#e1e1e1"/>
<path d="M317.6,481.52h22.2a5.21,5.21,0,0,1,4.91,3.2,14.87,14.87,0,0,1,1.28,6.41,8.12,8.12,0,0,1,1.5,4.48,115.16,115.16,0,0,1,0,12.17c-.22.64-2.56,1.28-2.56,1.28s1.49,3.42.21,6a6.27,6.27,0,0,1-3.2,3.2s-3,6.83-6,7.69-5.77,0-7.26,0-25.62-12.39-25.62-12.39v-2.77s-8.54.85-8.75-3.85,5.55-4.41,5.55-4.41h13s-14.3.57-15.59-1.56-3-7.26,1.39-8.12,24.13-.85,24.13-.85l10.78,1.78h1.71L334,489s-11.33,0-13-.24-4.88-.64-4.88-3.63S317.6,481.52,317.6,481.52Z" fill="#ffbf9d"/>
<path d="M347.63,500.33s16.7,4.38,28.19,3.49l11.49-.88-11.23-45.12,43.86-4.69L426.86,511V522.2c-13.11,3.35-26.32,10.14-39.61,19.61l-52.6-15.62Z" fill="#ffbf9d"/>
<path d="M330.08,503.82a18.11,18.11,0,0,1-4.15.28c-2.57,0-6.11,0-10-.27s-7.43-.65-10-1a18.89,18.89,0,0,1-4.08-.81,21.52,21.52,0,0,1,4.15.21c2.55.21,6.07.51,10,.76s7.41.41,10,.53A22,22,0,0,1,330.08,503.82Z" fill="#ff9a6c"/>
<path d="M328.06,515.82a15.3,15.3,0,0,1-3.7-.12c-2.27-.19-5.4-.57-8.83-1.12s-6.52-1.2-8.74-1.73a14.8,14.8,0,0,1-3.54-1.06,16.84,16.84,0,0,1,3.66.47l8.76,1.47,8.76,1.37A16.9,16.9,0,0,1,328.06,515.82Z" fill="#ff9a6c"/>
<path d="M346.65,499s.33.09.78.47a5.18,5.18,0,0,1,1.45,2.12,5.23,5.23,0,0,1-.09,3.94,5.66,5.66,0,0,1-3.83,3.23l.25-.61a7,7,0,0,1-3.2,10l.24-.28a13.68,13.68,0,0,1-4.8,7.29,11.62,11.62,0,0,1-2.16,1.33c-.54.24-.84.33-.86.29s1.11-.63,2.7-2a14,14,0,0,0,4.33-7.1l.05-.2.2-.08a6.3,6.3,0,0,0,2.82-8.78l-.31-.49.56-.13a5,5,0,0,0,3.38-2.73,4.83,4.83,0,0,0,.24-3.49A7.28,7.28,0,0,0,346.65,499Z" fill="#ff9a6c"/>
<path d="M355.48,360.05c4-4.36,7.36-9.57,7.35-15.17,0-5.85-3.63-11.21-7.48-16s-8.14-9.56-9.82-15.23l-3.88,1.94c6.89,14.64,3.86,32.45-7.62,44.72-2.73,2.91-5.93,5.59-7.69,9-2.1,4.11-1.88,8.89-.44,13.2s4,8.27,6.58,12.18q1.2-6.74,2.42-13.47a85.22,85.22,0,0,0,11.42,10.85c1.81-6.43-2-13.32-.15-19.73C347.58,367.54,351.91,363.91,355.48,360.05Z" fill="#0071f2" data-primary="true"/>
<path d="M347.1,348c-.29-.06,1.79-6.3,1.17-14.21s-3.5-13.8-3.22-13.89a14.38,14.38,0,0,1,1.88,3.8,36.2,36.2,0,0,1,1.48,20.26A14.31,14.31,0,0,1,347.1,348Z" fill="#2f2e41" data-secondary="true"/>
<path d="M354,350.73c-.14,0,0-1.9-.07-4.93a47.62,47.62,0,0,0-6.39-22.51c-1.52-2.62-2.65-4.14-2.53-4.23s.37.31.92,1a29.33,29.33,0,0,1,2.13,3,41.57,41.57,0,0,1,6.48,22.81,29.07,29.07,0,0,1-.26,3.63A4.28,4.28,0,0,1,354,350.73Z" fill="#2f2e41" data-secondary="true"/>
<g opacity="0.3">
<path d="M345.28,319.91a34.31,34.31,0,0,1,3.13,23c-.66,3-1.73,5.82-2.52,8.76a3.45,3.45,0,0,0-.14,1.71,2.22,2.22,0,0,0,2.31,1.45,4.43,4.43,0,0,0,2.61-1.28,4.23,4.23,0,0,1,1.82-1.25c.73-.16,1.65.47,1.43,1.19a14.1,14.1,0,0,0,.9-5.59,43.94,43.94,0,0,0-9.69-27.59"/>
</g>
</svg>